<svg id="Logo_endossement_IGM_couleur" data-name="Logo endossement IGM couleur" xmlns="http://www.w3.org/2000/svg" xmlns:xlink="http://www.w3.org/1999/xlink" viewBox="0 0 503.452 150.442"><defs><style>.cls-1{fill:none;}.cls-2{fill:#2f2a85;}.cls-3,.cls-7{fill:#fff;}.cls-4,.cls-8{fill:#1d1d1b;}.cls-5{fill:#009845;}.cls-6{clip-path:url(#clip-path);}.cls-7,.cls-8{fill-rule:evenodd;}</style><clipPath id="clip-path" transform="translate(-12.672 -13.01)"><rect class="cls-1" x="299.184" y="65.273" width="37.953" height="46.999"/></clipPath></defs><title>IGM-couleur</title><rect id="Fond_bleu" data-name="Fond bleu" class="cls-2" x="1.015" y="1.122" width="250.711" height="148.342"/><rect id="Fond_blanc" data-name="Fond blanc" class="cls-3" x="251.726" y="0.869" width="250.787" height="148.642"/><path id="Contour_bleu" data-name="Contour bleu" class="cls-2" d="M514.124,15.01V161.452H14.672V15.01H514.124m2-2H12.672V163.452H516.124V13.01Z" transform="translate(-12.672 -13.01)"/><g id="Logo_Gustave_Eiffel" data-name="Logo Gustave Eiffel"><g id="Symbole"><path class="cls-3" d="M94.079,109.725a20.147,20.147,0,0,0-11.6-3.661,20.371,20.371,0,0,0-14.474,5.867,20.08,20.08,0,0,0-4.648,7.2l-.414,1.095h8.9l.234-.369a11.614,11.614,0,0,1,1.614-2,12.461,12.461,0,0,1,19.03,2.021l.236.353h8.984l-.441-1.108a20.82,20.82,0,0,0-7.428-9.393" transform="translate(-12.672 -13.01)"/><path class="cls-3" d="M59.045,73.565a19.651,19.651,0,0,0-7.084-4.725l-1.077-.421V77.47l.363.237a11.674,11.674,0,0,1,1.975,1.641,12.771,12.771,0,0,1,3.454,8.93,12.641,12.641,0,0,1-5.443,10.415l-.349.239v9.135l1.091-.45a20.607,20.607,0,0,0,9.24-7.551,21.4,21.4,0,0,0-2.17-26.5" transform="translate(-12.672 -13.01)"/><path class="cls-3" d="M70.919,66.738a20.155,20.155,0,0,0,11.6,3.66,20.369,20.369,0,0,0,14.474-5.866,20.111,20.111,0,0,0,4.648-7.2l.414-1.094h-8.9l-.234.368A11.621,11.621,0,0,1,91.3,58.611,12.461,12.461,0,0,1,72.27,56.59l-.236-.353H63.05l.441,1.108a20.83,20.83,0,0,0,7.428,9.393" transform="translate(-12.672 -13.01)"/><path class="cls-3" d="M113.766,77.77l.348-.241V68.4l-1.091.448a20.621,20.621,0,0,0-9.241,7.55,21.4,21.4,0,0,0,2.173,26.5,19.62,19.62,0,0,0,7.081,4.724l1.078.421v-9.05l-.361-.238a11.556,11.556,0,0,1-1.976-1.641,12.936,12.936,0,0,1,1.989-19.344" transform="translate(-12.672 -13.01)"/><path class="cls-3" d="M90.555,88.3a8.142,8.142,0,1,1-8.141-8.275A8.209,8.209,0,0,1,90.555,88.3" transform="translate(-12.672 -13.01)"/></g><g id="Université_Gustave_Eiffel" data-name="Université Gustave Eiffel"><g id="Université"><path id="U" class="cls-3" d="M134.391,68.376A3.721,3.721,0,0,0,135.4,65.72V56.353h3.328V65.72a6.771,6.771,0,1,1-13.54,0V56.353h3.328V65.72a3.719,3.719,0,0,0,1.014,2.651,3.293,3.293,0,0,0,4.862.005" transform="translate(-12.672 -13.01)"/><path id="n" class="cls-3" d="M144.7,62.447a5.372,5.372,0,0,1,.37-.435,4.472,4.472,0,0,1,1.045-.7,3.488,3.488,0,0,1,1.7-.442,3.9,3.9,0,0,1,3.041,1.312,5.105,5.105,0,0,1,1.176,3.538v6.437h-2.993V66.062a2.267,2.267,0,0,0-.591-1.636,2,2,0,0,0-1.522-.623,2.064,2.064,0,0,0-1.622.677,2.8,2.8,0,0,0-.6,1.924v5.753h-2.992V61.091H144.7Z" transform="translate(-12.672 -13.01)"/><path id="i" class="cls-3" d="M157.519,59.162a1.79,1.79,0,0,1-1.3.463,1.6,1.6,0,0,1-1.208-.463,1.9,1.9,0,0,1,.005-2.458,1.612,1.612,0,0,1,1.2-.463,1.794,1.794,0,0,1,1.3.463,1.825,1.825,0,0,1,0,2.458m.259,13h-3V61.091h3Z" transform="translate(-12.672 -13.01)"/><polygon id="v" class="cls-3" points="150.63 59.147 146.521 48.08 149.632 48.08 152.181 55.422 154.738 48.08 157.841 48.08 153.742 59.147 150.63 59.147"/><path id="e" class="cls-3" d="M174.258,67.639a2.551,2.551,0,0,0,.943,1.525,3,3,0,0,0,1.942.623,3.66,3.66,0,0,0,1.566-.336,3.034,3.034,0,0,0,1.015-.677l.314-.341,1.549,2.028-.2.2a6.1,6.1,0,0,1-.58.47,6.89,6.89,0,0,1-.944.589,6.1,6.1,0,0,1-1.295.458,6.775,6.775,0,0,1-1.643.2,5.758,5.758,0,0,1-4.108-9.815,5.418,5.418,0,0,1,4-1.692,5.216,5.216,0,0,1,3.881,1.581,5.416,5.416,0,0,1,1.551,3.953l-.109,1.234Zm.938-3.6a3,3,0,0,0-.938,1.466h5a2.538,2.538,0,0,0-.83-1.454,2.353,2.353,0,0,0-1.61-.574,2.429,2.429,0,0,0-1.621.562" transform="translate(-12.672 -13.01)"/><path id="r" class="cls-3" d="M190.776,64.034a3.606,3.606,0,0,0-1-.121,2.4,2.4,0,0,0-1.87.761,3.142,3.142,0,0,0-.689,2.182v5.3h-2.992V61.091h2.992v1.356c.088-.1.21-.238.37-.4a4.32,4.32,0,0,1,1.045-.657,3.728,3.728,0,0,1,1.7-.407h.445Z" transform="translate(-12.672 -13.01)"/><path id="s" class="cls-3" d="M198.187,64.364a2.561,2.561,0,0,0-.212-.242,2.622,2.622,0,0,0-.613-.4,2.018,2.018,0,0,0-.954-.247,1.583,1.583,0,0,0-.975.27.772.772,0,0,0-.358.622.831.831,0,0,0,.509.716,6.3,6.3,0,0,0,1.242.513c.489.151.981.331,1.48.54a2.95,2.95,0,0,1,1.257,1.014,2.865,2.865,0,0,1,.509,1.737,3.168,3.168,0,0,1-1.152,2.491,4.685,4.685,0,0,1-3.173,1,6.334,6.334,0,0,1-1.646-.209,4.933,4.933,0,0,1-1.27-.507,8.129,8.129,0,0,1-.852-.591,3.7,3.7,0,0,1-.524-.49l-.153-.231,1.67-1.687a2.644,2.644,0,0,0,.277.336,3.708,3.708,0,0,0,.8.55,2.5,2.5,0,0,0,1.257.349,1.739,1.739,0,0,0,1.079-.283.86.86,0,0,0-.146-1.487,5.677,5.677,0,0,0-1.257-.529,13.518,13.518,0,0,1-1.48-.545,3.1,3.1,0,0,1-1.242-.993,2.726,2.726,0,0,1-.509-1.7,3.184,3.184,0,0,1,1.218-2.413,4.363,4.363,0,0,1,3-1.081,4.969,4.969,0,0,1,2.077.43,4.077,4.077,0,0,1,1.317.838l.38.429Z" transform="translate(-12.672 -13.01)"/><path id="i-2" data-name="i" class="cls-3" d="M204.893,59.162a1.79,1.79,0,0,1-1.3.463,1.6,1.6,0,0,1-1.208-.463,1.9,1.9,0,0,1,0-2.458,1.614,1.614,0,0,1,1.2-.463,1.794,1.794,0,0,1,1.3.463,1.822,1.822,0,0,1,0,2.458m.259,13h-3V61.091h3Z" transform="translate(-12.672 -13.01)"/><path id="t" class="cls-3" d="M209.235,57.829H211.9v3.494h2.211v2.71H211.9v4.4a1.179,1.179,0,0,0,.373.881,1.306,1.306,0,0,0,.948.365,2.629,2.629,0,0,0,.571-.062,2.028,2.028,0,0,0,.417-.127l.131-.044v2.6a5.464,5.464,0,0,1-2.008.331q-3.436,0-3.436-3.837V64.033h-1.887v-2.71h1a1.118,1.118,0,0,0,.867-.407,1.547,1.547,0,0,0,.358-1.059Z" transform="translate(-12.672 -13.01)"/><path id="é" class="cls-3" d="M218.2,67.639a2.55,2.55,0,0,0,.942,1.526,3,3,0,0,0,1.942.622,3.66,3.66,0,0,0,1.566-.336,3.049,3.049,0,0,0,1.015-.677l.314-.343,1.549,2.028-.2.2a6.128,6.128,0,0,1-.58.468,6.978,6.978,0,0,1-.943.591,6.073,6.073,0,0,1-1.3.456,6.732,6.732,0,0,1-1.643.2,5.759,5.759,0,0,1-4.108-9.814,5.422,5.422,0,0,1,4-1.692,5.2,5.2,0,0,1,3.881,1.582,5.411,5.411,0,0,1,1.551,3.95l-.107,1.236Zm.937-3.6A2.982,2.982,0,0,0,218.2,65.5h5a2.524,2.524,0,0,0-.83-1.455,2.354,2.354,0,0,0-1.61-.573,2.428,2.428,0,0,0-1.621.561m2.283-7.792h3.112l-2.44,3.384h-2.449Z" transform="translate(-12.672 -13.01)"/></g><g id="Gustave"><path id="G" class="cls-3" d="M139.617,87.5v5.864c-.057.074-.149.181-.276.325a8.412,8.412,0,0,1-.833.739,9.9,9.9,0,0,1-1.368.926,8.971,8.971,0,0,1-1.887.733,8.728,8.728,0,0,1-2.4.331,8.2,8.2,0,0,1-6-2.42,8.153,8.153,0,0,1,0-11.645,8.624,8.624,0,0,1,8.332-2.087,6.889,6.889,0,0,1,1.816.787,12.4,12.4,0,0,1,1.257.925,5.114,5.114,0,0,1,.786.783l.251.331-2.116,2.15c-.042-.06-.1-.141-.178-.248a4.947,4.947,0,0,0-.509-.547,5.3,5.3,0,0,0-.862-.677,5.567,5.567,0,0,0-1.226-.539,5.123,5.123,0,0,0-5.192,1.239,5.414,5.414,0,0,0,0,7.407,4.9,4.9,0,0,0,3.641,1.487,5.512,5.512,0,0,0,1.9-.314,3.757,3.757,0,0,0,1.205-.633l.336-.287V89.981h-2.777V87.5Z" transform="translate(-12.672 -13.01)"/><path id="u-2" data-name="u" class="cls-3" d="M149.7,94.951a4.571,4.571,0,0,1-.37.38,4.3,4.3,0,0,1-1.045.6,4.031,4.031,0,0,1-1.7.368,3.955,3.955,0,0,1-3.041-1.272,4.8,4.8,0,0,1-1.176-3.389V85.01h2.994v6.327a2.093,2.093,0,0,0,.6,1.532,2.044,2.044,0,0,0,1.512.606A2.072,2.072,0,0,0,149.1,92.8a2.793,2.793,0,0,0,.6-1.92V85.01h2.992V96.076H149.7Z" transform="translate(-12.672 -13.01)"/><path id="s-2" data-name="s" class="cls-3" d="M161.432,88.283a2.421,2.421,0,0,0-.212-.242,2.6,2.6,0,0,0-.613-.4,2.015,2.015,0,0,0-.953-.247,1.591,1.591,0,0,0-.976.269.775.775,0,0,0-.358.623.832.832,0,0,0,.509.716,6.365,6.365,0,0,0,1.242.513c.489.151.981.331,1.48.54a2.953,2.953,0,0,1,1.258,1.014,2.86,2.86,0,0,1,.509,1.736,3.17,3.17,0,0,1-1.153,2.492,4.683,4.683,0,0,1-3.173,1,6.345,6.345,0,0,1-1.646-.209,4.9,4.9,0,0,1-1.27-.508,8.4,8.4,0,0,1-.852-.59,3.844,3.844,0,0,1-.526-.491l-.151-.23,1.67-1.687a2.894,2.894,0,0,0,.277.336,3.708,3.708,0,0,0,.8.55,2.5,2.5,0,0,0,1.257.349,1.744,1.744,0,0,0,1.08-.283.86.86,0,0,0-.146-1.487,5.659,5.659,0,0,0-1.258-.529,13.518,13.518,0,0,1-1.48-.545,3.114,3.114,0,0,1-1.242-.993,2.732,2.732,0,0,1-.509-1.7,3.191,3.191,0,0,1,1.218-2.415,4.373,4.373,0,0,1,3-1.079,4.984,4.984,0,0,1,2.077.429,4.093,4.093,0,0,1,1.317.839l.38.429Z" transform="translate(-12.672 -13.01)"/><path id="t-2" data-name="t" class="cls-3" d="M166.62,81.747h2.667v3.5H171.5v2.711h-2.212v4.4a1.186,1.186,0,0,0,.374.883,1.309,1.309,0,0,0,.948.363,2.622,2.622,0,0,0,.571-.061,2.092,2.092,0,0,0,.417-.127l.131-.045v2.6a5.444,5.444,0,0,1-2.008.331q-3.436,0-3.436-3.835V87.953H164.4V85.242h1a1.116,1.116,0,0,0,.868-.408,1.545,1.545,0,0,0,.358-1.059Z" transform="translate(-12.672 -13.01)"/><path id="a" class="cls-3" d="M179.581,94.951a5.184,5.184,0,0,1-.363.381,4.373,4.373,0,0,1-1.013.6,4.083,4.083,0,0,1-4.273-.551,2.907,2.907,0,0,1-1.019-2.234,3.157,3.157,0,0,1,.857-2.259,4.181,4.181,0,0,1,2.364-1.179l3.447-.628a1.439,1.439,0,0,0-.5-1.135A2.018,2.018,0,0,0,177.7,87.5a3.177,3.177,0,0,0-1.346.28,2.5,2.5,0,0,0-.857.58l-.248.265-1.66-1.687c.045-.06.1-.139.18-.238a4.752,4.752,0,0,1,.509-.511,5.379,5.379,0,0,1,.863-.646,5.69,5.69,0,0,1,1.225-.518,5.206,5.206,0,0,1,1.551-.237,4.649,4.649,0,0,1,3.36,1.25,4.188,4.188,0,0,1,1.3,3.148v6.889h-2.994Zm-.6-1.791a2.6,2.6,0,0,0,.6-1.824V91l-2.439.451q-1.227.2-1.225,1.246,0,1.122,1.441,1.123a2.092,2.092,0,0,0,1.622-.655" transform="translate(-12.672 -13.01)"/><polygon id="v-2" data-name="v" class="cls-3" points="175.318 83.065 171.21 71.999 174.32 71.999 176.869 79.34 179.427 71.999 182.527 71.999 178.431 83.065 175.318 83.065"/><path id="e-2" data-name="e" class="cls-3" d="M198.945,91.557a2.544,2.544,0,0,0,.944,1.526,2.991,2.991,0,0,0,1.941.624,3.658,3.658,0,0,0,1.566-.338,3.019,3.019,0,0,0,1.015-.677l.313-.341,1.551,2.028-.2.2a5.532,5.532,0,0,1-.58.47,6.679,6.679,0,0,1-.944.589,5.906,5.906,0,0,1-1.294.458,6.737,6.737,0,0,1-1.643.2,5.759,5.759,0,0,1-4.109-9.814,5.429,5.429,0,0,1,4-1.692,5.21,5.21,0,0,1,3.881,1.582,5.41,5.41,0,0,1,1.551,3.952l-.108,1.234Zm.939-3.6a3,3,0,0,0-.939,1.466h5a2.541,2.541,0,0,0-.83-1.455,2.358,2.358,0,0,0-1.611-.573,2.421,2.421,0,0,0-1.62.562" transform="translate(-12.672 -13.01)"/></g><g id="Eiffel"><polygon id="E-3" data-name="E" class="cls-3" points="112.623 91.179 112.623 106.983 124.29 106.983 124.29 103.942 115.962 103.942 115.962 100.438 122.284 100.438 122.284 97.395 115.962 97.395 115.962 94.232 124.062 94.232 124.062 91.179 112.623 91.179"/><path id="i-3" data-name="i" class="cls-3" d="M142,107a1.792,1.792,0,0,1-1.3.464,1.6,1.6,0,0,1-1.208-.464,1.894,1.894,0,0,1,0-2.457,1.609,1.609,0,0,1,1.2-.463,1.792,1.792,0,0,1,1.3.463A1.823,1.823,0,0,1,142,107m.259,12.994h-3V108.927h3Z" transform="translate(-12.672 -13.01)"/><path id="f" class="cls-3" d="M151.11,111.981h-2.44V120h-3v-8.014h-1.551V109.27h1.551V107.8q0-3.832,3.446-3.835a5.651,5.651,0,0,1,.988.088,6,6,0,0,1,.77.177l.238.076V106.9A2.459,2.459,0,0,0,150,106.68a1.337,1.337,0,0,0-.954.358,1.159,1.159,0,0,0-.38.876v1.356h2.44Z" transform="translate(-12.672 -13.01)"/><path id="f-2" data-name="f" class="cls-3" d="M158.965,111.981h-2.44V120h-3v-8.014h-1.552V109.27h1.552V107.8q0-3.832,3.446-3.835a5.651,5.651,0,0,1,.988.088,5.974,5.974,0,0,1,.769.177l.239.076V106.9a2.461,2.461,0,0,0-1.107-.221,1.332,1.332,0,0,0-.952.358,1.164,1.164,0,0,0-.381.876v1.356h2.44Z" transform="translate(-12.672 -13.01)"/><path id="e-4" data-name="e" class="cls-3" d="M163.155,115.476A2.548,2.548,0,0,0,164.1,117a3,3,0,0,0,1.942.623,3.66,3.66,0,0,0,1.566-.336,3.034,3.034,0,0,0,1.015-.677l.314-.341,1.549,2.028-.2.2a5.738,5.738,0,0,1-.579.47,7.063,7.063,0,0,1-.945.589,5.936,5.936,0,0,1-1.295.458,6.825,6.825,0,0,1-1.643.2,5.76,5.76,0,0,1-4.108-9.816,5.426,5.426,0,0,1,4-1.692,5.213,5.213,0,0,1,3.881,1.582,5.412,5.412,0,0,1,1.551,3.952l-.109,1.234Zm.938-3.605a3,3,0,0,0-.938,1.467h5a2.538,2.538,0,0,0-.83-1.455,2.357,2.357,0,0,0-1.61-.573,2.428,2.428,0,0,0-1.621.561" transform="translate(-12.672 -13.01)"/><rect id="l" class="cls-3" x="160.561" y="91.179" width="3.004" height="15.804"/></g></g></g><g id="Logo_IGM" data-name="Logo IGM"><path class="cls-4" d="M367.964,61.98h1.319v8.4h-1.319Z" transform="translate(-12.672 -13.01)"/><path class="cls-4" d="M378.823,61.98v8.4h-1.139L373,64.32v6.06h-1.319v-8.4h1.139l4.68,6.06V61.98Z" transform="translate(-12.672 -13.01)"/><path class="cls-4" d="M385.184,67.91a.839.839,0,0,0-.193-.57,1.548,1.548,0,0,0-.5-.373,4,4,0,0,0-.708-.257c-.263-.07-.536-.145-.815-.227a8.118,8.118,0,0,1-.817-.285,2.79,2.79,0,0,1-.708-.42,1.931,1.931,0,0,1-.5-.641,2.137,2.137,0,0,1-.192-.955,2.054,2.054,0,0,1,.187-.862,1.977,1.977,0,0,1,.54-.7,2.659,2.659,0,0,1,.87-.472,3.626,3.626,0,0,1,1.164-.175,3.259,3.259,0,0,1,1.1.168,3.726,3.726,0,0,1,.781.372,2.991,2.991,0,0,1,.635.54l-.839.883a1.84,1.84,0,0,0-.409-.381,2.357,2.357,0,0,0-.528-.261,2.109,2.109,0,0,0-.743-.121,1.972,1.972,0,0,0-.607.088,1.4,1.4,0,0,0-.456.238,1.086,1.086,0,0,0-.282.338.847.847,0,0,0-.1.385.837.837,0,0,0,.193.571,1.546,1.546,0,0,0,.5.372,3.821,3.821,0,0,0,.708.257q.394.1.815.227a8.468,8.468,0,0,1,.817.285,2.79,2.79,0,0,1,.708.42,1.926,1.926,0,0,1,.5.641,2.126,2.126,0,0,1,.193.955,2.4,2.4,0,0,1-.2.973,2.141,2.141,0,0,1-.582.775,2.84,2.84,0,0,1-.943.513,4.034,4.034,0,0,1-1.277.186,3.94,3.94,0,0,1-1.332-.2,4.287,4.287,0,0,1-.937-.454,3.2,3.2,0,0,1-.731-.657l.84-.8a2.242,2.242,0,0,0,.515.458,3.2,3.2,0,0,0,.666.314,2.945,2.945,0,0,0,.979.143,1.835,1.835,0,0,0,1.247-.378A1.166,1.166,0,0,0,385.184,67.91Z" transform="translate(-12.672 -13.01)"/><path class="cls-4" d="M393.463,61.98v1.2h-2.52v7.2h-1.32v-7.2H387.1v-1.2Z" transform="translate(-12.672 -13.01)"/><path class="cls-4" d="M394.9,61.98h1.32v8.4H394.9Z" transform="translate(-12.672 -13.01)"/><path class="cls-4" d="M404.023,61.98v1.2H401.5v7.2h-1.32v-7.2h-2.52v-1.2Z" transform="translate(-12.672 -13.01)"/><path class="cls-4" d="M408.884,69.192a2.111,2.111,0,0,0,.851-.177,2.242,2.242,0,0,0,.708-.479,2.318,2.318,0,0,0,.481-.715,2.171,2.171,0,0,0,.179-.875V61.98h1.321v4.976a3.273,3.273,0,0,1-.277,1.339,3.4,3.4,0,0,1-.75,1.09,3.624,3.624,0,0,1-5.027,0,3.431,3.431,0,0,1-.75-1.09,3.272,3.272,0,0,1-.276-1.339V61.98h1.32v4.966a2.172,2.172,0,0,0,.18.875,2.331,2.331,0,0,0,.479.715,2.284,2.284,0,0,0,.7.479A2.11,2.11,0,0,0,408.884,69.192Z" transform="translate(-12.672 -13.01)"/><path class="cls-4" d="M420.1,61.98v1.2h-2.519v7.2h-1.32v-7.2h-2.52v-1.2Z" transform="translate(-12.672 -13.01)"/><path class="cls-4" d="M370.9,76.38a4.1,4.1,0,0,1,1.651.336,4.421,4.421,0,0,1,1.356.912,4.329,4.329,0,0,1,.918,1.338,4.044,4.044,0,0,1,0,3.228,4.329,4.329,0,0,1-.918,1.338,4.421,4.421,0,0,1-1.356.912,4.1,4.1,0,0,1-1.651.336h-2.939v-8.4Zm-1.62,1.2v6h1.62a2.832,2.832,0,0,0,1.147-.234,2.953,2.953,0,0,0,.929-.636,3.01,3.01,0,0,0,.63-.948,3.075,3.075,0,0,0,0-2.358,2.993,2.993,0,0,0-.63-.954,2.953,2.953,0,0,0-.929-.636,2.832,2.832,0,0,0-1.147-.234Z" transform="translate(-12.672 -13.01)"/><path class="cls-4" d="M378.4,76.74l-1.5,2.4-.779-.42,1.2-2.58Z" transform="translate(-12.672 -13.01)"/><path class="cls-4" d="M385.9,83.58v1.2h-6.059v-8.4h5.939v1.2h-4.62V79.8h3.66V81h-3.66v2.58Zm-2.639-9.96h1.259l-1.259,1.68h-.9Z" transform="translate(-12.672 -13.01)"/><path class="cls-4" d="M387.7,84.78v-8.4h1.319v7.2h4.08v1.2Z" transform="translate(-12.672 -13.01)"/><path class="cls-4" d="M400.724,83.58v1.2h-6.06v-8.4H400.6v1.2h-4.62V79.8h3.66V81h-3.66v2.58Z" transform="translate(-12.672 -13.01)"/><path class="cls-4" d="M406.483,76.368a3.936,3.936,0,0,1,1.5.261,4.816,4.816,0,0,1,1.068.584,4.609,4.609,0,0,1,.852.832l-.84.8a2.765,2.765,0,0,0-.636-.632,3.718,3.718,0,0,0-.81-.444,2.952,2.952,0,0,0-1.134-.2,3.185,3.185,0,0,0-1.217.232,3.086,3.086,0,0,0-1,.643,2.971,2.971,0,0,0-.666.961,3,3,0,0,0,0,2.352,2.975,2.975,0,0,0,.666.962,3.12,3.12,0,0,0,1,.643,3.2,3.2,0,0,0,1.217.231,3.1,3.1,0,0,0,1.14-.194,3.891,3.891,0,0,0,.828-.435,3.018,3.018,0,0,0,.672-.629l.84.8a4.4,4.4,0,0,1-.888.828,5.587,5.587,0,0,1-1.086.569,4,4,0,0,1-1.506.26,4.647,4.647,0,0,1-1.757-.327,4.349,4.349,0,0,1-1.4-.9,4.26,4.26,0,0,1-.936-1.34,4.122,4.122,0,0,1,0-3.288,4.271,4.271,0,0,1,.936-1.34,4.346,4.346,0,0,1,1.4-.9A4.628,4.628,0,0,1,406.483,76.368Z" transform="translate(-12.672 -13.01)"/><path class="cls-4" d="M417.043,76.38v1.2h-2.52v7.2H413.2v-7.2h-2.519v-1.2Z" transform="translate(-12.672 -13.01)"/><path class="cls-4" d="M418.483,76.38h3.54a2.867,2.867,0,0,1,1.08.2,2.567,2.567,0,0,1,.852.552,2.6,2.6,0,0,1,.564.822,2.5,2.5,0,0,1,.2,1.008,2.368,2.368,0,0,1-.265,1.176,3.074,3.074,0,0,1-.576.756,2.867,2.867,0,0,1-.84.528l1.92,3.36h-1.44l-1.8-3.24H419.8v3.24h-1.32Zm4.92,2.58a1.378,1.378,0,0,0-.4-.978,1.383,1.383,0,0,0-.438-.294,1.356,1.356,0,0,0-.54-.108H419.8v2.76h2.22a1.356,1.356,0,0,0,.54-.108,1.383,1.383,0,0,0,.438-.294,1.378,1.378,0,0,0,.4-.978Z" transform="translate(-12.672 -13.01)"/><path class="cls-4" d="M426.4,80.58a4,4,0,0,1,.342-1.644,4.274,4.274,0,0,1,.937-1.34,4.342,4.342,0,0,1,1.4-.9,4.873,4.873,0,0,1,3.515,0,4.357,4.357,0,0,1,1.4.9,4.268,4.268,0,0,1,.935,1.34,4.122,4.122,0,0,1,0,3.288,4.257,4.257,0,0,1-.935,1.34,4.36,4.36,0,0,1-1.4.9,4.886,4.886,0,0,1-3.515,0,4.344,4.344,0,0,1-1.4-.9,4.263,4.263,0,0,1-.937-1.34A4,4,0,0,1,426.4,80.58Zm1.321,0a2.91,2.91,0,0,0,.24,1.176,2.96,2.96,0,0,0,.666.962,3.1,3.1,0,0,0,1,.643,3.324,3.324,0,0,0,2.435,0,3.142,3.142,0,0,0,1-.643,2.991,2.991,0,0,0,.666-.962,3,3,0,0,0,0-2.352,2.987,2.987,0,0,0-.666-.961,3.108,3.108,0,0,0-1-.643,3.311,3.311,0,0,0-2.435,0,3.071,3.071,0,0,0-1,.643,2.956,2.956,0,0,0-.666.961A2.91,2.91,0,0,0,427.724,80.58Z" transform="translate(-12.672 -13.01)"/><path class="cls-4" d="M444.343,76.38v8.4H443.2l-4.681-6.06v6.06H437.2v-8.4h1.14l4.679,6.06V76.38Z" transform="translate(-12.672 -13.01)"/><path class="cls-4" d="M446.743,76.38h1.319v8.4h-1.319Z" transform="translate(-12.672 -13.01)"/><path class="cls-4" d="M449.982,80.58a4,4,0,0,1,.342-1.644,4.274,4.274,0,0,1,.937-1.34,4.342,4.342,0,0,1,1.4-.9,4.875,4.875,0,0,1,3.516,0,4.349,4.349,0,0,1,1.4.9,4.245,4.245,0,0,1,.935,1.34,3.973,3.973,0,0,1,.342,1.644,4.276,4.276,0,0,1-.1.954,4.03,4.03,0,0,1-.271.8,3.686,3.686,0,0,1-.384.65,4.331,4.331,0,0,1-1.643,1.357,1.736,1.736,0,0,0,.54.572,2.771,2.771,0,0,0,.773.352,3.115,3.115,0,0,0,1.206.077v1.08a4.159,4.159,0,0,1-1.7-.131,3.391,3.391,0,0,1-.653-.269,4.839,4.839,0,0,1-.523-.329,3.6,3.6,0,0,1-.9-.945,2.387,2.387,0,0,1-.252.036c-.08.008-.167.012-.259.012h-.269a4.652,4.652,0,0,1-1.758-.327,4.344,4.344,0,0,1-1.4-.9,4.263,4.263,0,0,1-.937-1.34A4,4,0,0,1,449.982,80.58Zm1.321.006a2.916,2.916,0,0,0,.24,1.178,2.968,2.968,0,0,0,.666.964,3.074,3.074,0,0,0,1,.644,3.313,3.313,0,0,0,2.436,0,3.117,3.117,0,0,0,1-.644,2.984,2.984,0,0,0,.666-.964,3.011,3.011,0,0,0,0-2.356,2.979,2.979,0,0,0-.666-.963,3.12,3.12,0,0,0-1-.645,3.313,3.313,0,0,0-2.436,0,3.076,3.076,0,0,0-1,.645,2.964,2.964,0,0,0-.666.963A2.92,2.92,0,0,0,451.3,80.586Z" transform="translate(-12.672 -13.01)"/><path class="cls-4" d="M464.323,83.592a2.119,2.119,0,0,0,.852-.177,2.253,2.253,0,0,0,.708-.479,2.309,2.309,0,0,0,.48-.716,2.165,2.165,0,0,0,.18-.875V76.38h1.32v4.976a3.289,3.289,0,0,1-.276,1.339,3.431,3.431,0,0,1-.75,1.09,3.627,3.627,0,0,1-5.028,0,3.431,3.431,0,0,1-.75-1.09,3.289,3.289,0,0,1-.276-1.339V76.38h1.32v4.965a2.165,2.165,0,0,0,.18.875,2.309,2.309,0,0,0,.48.716,2.272,2.272,0,0,0,.7.479A2.1,2.1,0,0,0,464.323,83.592Z" transform="translate(-12.672 -13.01)"/><path class="cls-4" d="M476.2,83.58v1.2h-6.059v-8.4h5.939v1.2h-4.62V79.8h3.66V81h-3.66v2.58Z" transform="translate(-12.672 -13.01)"/><path class="cls-4" d="M374.023,97.98v1.2h-6.059v-8.4H373.9v1.2h-4.62V94.2h3.66v1.2h-3.66v2.58Z" transform="translate(-12.672 -13.01)"/><path class="cls-4" d="M381.224,90.78v1.2H378.7v7.2h-1.32v-7.2h-2.52v-1.2Z" transform="translate(-12.672 -13.01)"/><path class="cls-4" d="M388,90.78a4.1,4.1,0,0,1,1.65.336,4.431,4.431,0,0,1,1.357.912,4.346,4.346,0,0,1,.918,1.338,4.047,4.047,0,0,1,0,3.229,4.341,4.341,0,0,1-.918,1.337,4.434,4.434,0,0,1-1.357.913,4.111,4.111,0,0,1-1.65.335h-2.94v-8.4Zm-1.62,1.2v6H388a2.824,2.824,0,0,0,1.146-.234,2.925,2.925,0,0,0,.93-.636,3,3,0,0,0,.63-.948,3.006,3.006,0,0,0-1.56-3.947A2.808,2.808,0,0,0,388,91.98Z" transform="translate(-12.672 -13.01)"/><path class="cls-4" d="M395.5,91.14l-1.5,2.4-.779-.42,1.2-2.58Z" transform="translate(-12.672 -13.01)"/><path class="cls-4" d="M396.943,90.78h1.32v8.4h-1.32Z" transform="translate(-12.672 -13.01)"/><path class="cls-4" d="M407.8,90.78v8.4h-1.14l-4.681-6.06v6.06h-1.319v-8.4h1.14l4.679,6.061V90.78Z" transform="translate(-12.672 -13.01)"/><path class="cls-4" d="M416.083,90.78v1.2h-4.561v2.34h3.6v1.2h-3.6v3.66H410.2v-8.4Z" transform="translate(-12.672 -13.01)"/><path class="cls-4" d="M417.043,94.98a3.98,3.98,0,0,1,.342-1.643,4.248,4.248,0,0,1,.936-1.34,4.351,4.351,0,0,1,1.4-.9,4.886,4.886,0,0,1,3.515,0,4.357,4.357,0,0,1,1.4.9,4.248,4.248,0,0,1,.936,1.34,4.12,4.12,0,0,1,0,3.287,4.248,4.248,0,0,1-.936,1.34,4.355,4.355,0,0,1-1.4.9,4.886,4.886,0,0,1-3.515,0,4.349,4.349,0,0,1-1.4-.9,4.248,4.248,0,0,1-.936-1.34A3.988,3.988,0,0,1,417.043,94.98Zm1.32,0a2.91,2.91,0,0,0,.24,1.176,2.975,2.975,0,0,0,.666.962,3.12,3.12,0,0,0,1,.643,3.324,3.324,0,0,0,2.435,0,3.126,3.126,0,0,0,1-.643,2.975,2.975,0,0,0,.666-.962,3,3,0,0,0,0-2.352,2.971,2.971,0,0,0-.666-.961,3.093,3.093,0,0,0-1-.643,3.324,3.324,0,0,0-2.435,0,3.086,3.086,0,0,0-1,.643,2.971,2.971,0,0,0-.666.961A2.914,2.914,0,0,0,418.363,94.98Z" transform="translate(-12.672 -13.01)"/><path class="cls-4" d="M427.844,90.78h3.54a2.871,2.871,0,0,1,1.08.2,2.575,2.575,0,0,1,1.416,1.374,2.5,2.5,0,0,1,.2,1.008,2.366,2.366,0,0,1-.265,1.176,3.074,3.074,0,0,1-.576.756,2.854,2.854,0,0,1-.84.528l1.92,3.36h-1.439l-1.8-3.24h-1.921v3.24h-1.319Zm4.92,2.58a1.375,1.375,0,0,0-.84-1.271,1.343,1.343,0,0,0-.54-.109h-2.221v2.76h2.221a1.377,1.377,0,0,0,.54-.107,1.4,1.4,0,0,0,.437-.294,1.371,1.371,0,0,0,.294-.439A1.353,1.353,0,0,0,432.764,93.36Z" transform="translate(-12.672 -13.01)"/><path class="cls-4" d="M443.863,90.78H445v8.4h-1.32V93.06l-3.06,3.84-3.061-3.84v6.12h-1.319v-8.4h1.14l3.24,4.08Z" transform="translate(-12.672 -13.01)"/><path class="cls-4" d="M449.923,90.78h1.32l3.48,8.4h-1.38l-.9-2.22h-3.72l-.9,2.22h-1.38Zm-.72,4.981h2.76l-1.38-3.481Z" transform="translate(-12.672 -13.01)"/><path class="cls-4" d="M460.843,90.78v1.2h-2.52v7.2H457v-7.2h-2.52v-1.2Z" transform="translate(-12.672 -13.01)"/><path class="cls-4" d="M462.283,90.78H463.6v8.4h-1.319Z" transform="translate(-12.672 -13.01)"/><path class="cls-4" d="M465.522,94.98a4,4,0,0,1,.342-1.643A4.251,4.251,0,0,1,466.8,92a4.347,4.347,0,0,1,1.4-.9,4.889,4.889,0,0,1,3.516,0,4.368,4.368,0,0,1,1.4.9,4.257,4.257,0,0,1,.935,1.34,3.973,3.973,0,0,1,.342,1.644,4.276,4.276,0,0,1-.1.954,3.966,3.966,0,0,1-.271.8,3.686,3.686,0,0,1-.384.65,4.192,4.192,0,0,1-.443.515,4.246,4.246,0,0,1-1.2.842,1.736,1.736,0,0,0,.54.572,2.742,2.742,0,0,0,.773.353,3.115,3.115,0,0,0,1.206.077v1.08a4.135,4.135,0,0,1-1.7-.132,3.329,3.329,0,0,1-.653-.269,4.878,4.878,0,0,1-.522-.328,3.6,3.6,0,0,1-.9-.946,2.152,2.152,0,0,1-.252.036c-.08.008-.167.012-.259.012h-.269a4.633,4.633,0,0,1-1.758-.327,4.344,4.344,0,0,1-1.4-.9,4.251,4.251,0,0,1-.937-1.34A4,4,0,0,1,465.522,94.98Zm1.321.006a2.925,2.925,0,0,0,.24,1.179,2.975,2.975,0,0,0,.666.963,3.074,3.074,0,0,0,1,.644,3.3,3.3,0,0,0,2.436,0,3.106,3.106,0,0,0,1-.644,2.99,2.99,0,0,0,.666-.963,3.013,3.013,0,0,0,0-2.357,2.979,2.979,0,0,0-.666-.963,3.109,3.109,0,0,0-1-.645,3.327,3.327,0,0,0-2.436,0,3.076,3.076,0,0,0-1,.645,2.964,2.964,0,0,0-.666.963A2.92,2.92,0,0,0,466.843,94.986Z" transform="translate(-12.672 -13.01)"/><path class="cls-4" d="M479.863,97.992a2.119,2.119,0,0,0,.852-.177,2.253,2.253,0,0,0,.708-.479,2.316,2.316,0,0,0,.48-.715,2.172,2.172,0,0,0,.18-.875V90.78h1.32v4.977a3.287,3.287,0,0,1-.276,1.338,3.431,3.431,0,0,1-.75,1.09,3.624,3.624,0,0,1-5.027,0,3.4,3.4,0,0,1-.75-1.09,3.272,3.272,0,0,1-.277-1.338V90.78h1.32v4.966a2.172,2.172,0,0,0,.18.875,2.316,2.316,0,0,0,.48.715,2.272,2.272,0,0,0,.7.479A2.105,2.105,0,0,0,479.863,97.992Z" transform="translate(-12.672 -13.01)"/><path class="cls-4" d="M491.742,97.98v1.2h-6.059v-8.4h5.939v1.2H487V94.2h3.66v1.2H487v2.58Z" transform="translate(-12.672 -13.01)"/><path class="cls-4" d="M375.523,109.032v3a3.875,3.875,0,0,1-.9.78,5.348,5.348,0,0,1-1.128.54,5.052,5.052,0,0,1-3.33-.088,4.311,4.311,0,0,1-1.4-.9,4.24,4.24,0,0,1-.937-1.34,4.12,4.12,0,0,1,0-3.287,4.263,4.263,0,0,1,.937-1.34,4.325,4.325,0,0,1,1.4-.9,4.633,4.633,0,0,1,1.758-.328,4.128,4.128,0,0,1,1.5.248,4.972,4.972,0,0,1,1.067.555,4.594,4.594,0,0,1,.853.793l-.84.775a2.67,2.67,0,0,0-.637-.58,3.8,3.8,0,0,0-.809-.407,3.446,3.446,0,0,0-2.352.047,3.09,3.09,0,0,0-1,.644,2.956,2.956,0,0,0-.666.961,3,3,0,0,0,0,2.351,2.949,2.949,0,0,0,.666.962,3.055,3.055,0,0,0,1,.643,3.189,3.189,0,0,0,1.218.231,3.662,3.662,0,0,0,1.019-.126,2.914,2.914,0,0,0,.708-.294,2.261,2.261,0,0,0,.553-.419v-1.32h-1.62v-1.2Z" transform="translate(-12.672 -13.01)"/><path class="cls-4" d="M380.2,105.179h1.32l3.48,8.4h-1.38l-.9-2.22H379l-.9,2.22h-1.379Zm-.72,4.981h2.76l-1.38-3.481Z" transform="translate(-12.672 -13.01)"/><path class="cls-4" d="M390.4,111.11a.838.838,0,0,0-.192-.57,1.52,1.52,0,0,0-.5-.373,3.847,3.847,0,0,0-.708-.257c-.264-.069-.536-.146-.815-.228a7.573,7.573,0,0,1-.817-.285,2.742,2.742,0,0,1-.708-.419,1.931,1.931,0,0,1-.5-.641,2.126,2.126,0,0,1-.192-.955,2.058,2.058,0,0,1,.186-.863,2,2,0,0,1,.54-.705,2.678,2.678,0,0,1,.87-.471,3.605,3.605,0,0,1,1.165-.175,3.263,3.263,0,0,1,1.1.168,3.716,3.716,0,0,1,.78.372,3.022,3.022,0,0,1,.636.54l-.84.883a1.817,1.817,0,0,0-.408-.382,2.425,2.425,0,0,0-.528-.26,2.109,2.109,0,0,0-.743-.121,1.973,1.973,0,0,0-.607.087,1.407,1.407,0,0,0-.456.239,1.072,1.072,0,0,0-.282.338.888.888,0,0,0,.1.955,1.506,1.506,0,0,0,.5.373,3.847,3.847,0,0,0,.708.257q.4.1.816.227a7.863,7.863,0,0,1,.816.286,2.742,2.742,0,0,1,.708.419,1.937,1.937,0,0,1,.5.64,2.131,2.131,0,0,1,.193.956,2.382,2.382,0,0,1-.2.973,2.138,2.138,0,0,1-.582.775,2.816,2.816,0,0,1-.942.512,4.005,4.005,0,0,1-1.277.187,3.914,3.914,0,0,1-1.332-.2,4.155,4.155,0,0,1-.937-.454,3.178,3.178,0,0,1-.731-.657l.839-.8a2.266,2.266,0,0,0,.516.457,3.12,3.12,0,0,0,.666.315,2.921,2.921,0,0,0,.979.142,1.835,1.835,0,0,0,1.247-.378A1.162,1.162,0,0,0,390.4,111.11Z" transform="translate(-12.672 -13.01)"/><path class="cls-4" d="M396.883,105.179a2.993,2.993,0,0,1,1.129.21,2.781,2.781,0,0,1,.893.577,2.6,2.6,0,0,1,.588.858,2.76,2.76,0,0,1,0,2.112,2.6,2.6,0,0,1-.588.858,2.778,2.778,0,0,1-.893.576,2.973,2.973,0,0,1-1.129.21h-2.04v3h-1.32v-8.4Zm-2.04,1.2v3h2.04a1.516,1.516,0,0,0,.589-.115,1.444,1.444,0,0,0,.8-.8,1.573,1.573,0,0,0,0-1.176,1.449,1.449,0,0,0-.8-.8,1.534,1.534,0,0,0-.589-.114Z" transform="translate(-12.672 -13.01)"/><path class="cls-4" d="M403.423,105.179h1.32l3.48,8.4h-1.38l-.9-2.22h-3.72l-.9,2.22h-1.38Zm-.72,4.981h2.76l-1.38-3.481Z" transform="translate(-12.672 -13.01)"/><path class="cls-4" d="M409.664,105.179h3.54a2.867,2.867,0,0,1,1.08.2,2.6,2.6,0,0,1,.852.551,2.629,2.629,0,0,1,.564.823,2.5,2.5,0,0,1,.2,1.008,2.379,2.379,0,0,1-.264,1.176,3.076,3.076,0,0,1-.577.756,2.862,2.862,0,0,1-.839.528l1.919,3.36H414.7l-1.8-3.24h-1.921v3.24h-1.319Zm4.92,2.581a1.353,1.353,0,0,0-.108-.54,1.366,1.366,0,0,0-.732-.732,1.36,1.36,0,0,0-.54-.108h-2.221v2.759H413.2a1.359,1.359,0,0,0,.54-.107,1.366,1.366,0,0,0,.732-.732A1.356,1.356,0,0,0,414.584,107.76Z" transform="translate(-12.672 -13.01)"/><path class="cls-4" d="M421,105.179a4.112,4.112,0,0,1,1.65.336,4.434,4.434,0,0,1,1.357.913,4.353,4.353,0,0,1,.918,1.337,4.047,4.047,0,0,1,0,3.229,4.346,4.346,0,0,1-.918,1.338,4.414,4.414,0,0,1-1.357.912,4.1,4.1,0,0,1-1.65.336h-2.94v-8.4Zm-1.62,1.2v6H421a2.824,2.824,0,0,0,1.146-.234,2.957,2.957,0,0,0,.93-.636,3.01,3.01,0,0,0,.63-.948,3.009,3.009,0,0,0-1.56-3.948A2.824,2.824,0,0,0,421,106.38Z" transform="translate(-12.672 -13.01)"/><path class="cls-4" d="M430.663,110.1h-4.2V109.02h4.2Z" transform="translate(-12.672 -13.01)"/><path class="cls-4" d="M439.964,105.179H441.1v8.4h-1.32v-6.12l-3.059,3.84-3.061-3.84v6.12h-1.319v-8.4h1.139l3.241,4.081Z" transform="translate(-12.672 -13.01)"/><path class="cls-4" d="M443.022,109.38a4,4,0,0,1,.342-1.644,4.263,4.263,0,0,1,.937-1.34,4.325,4.325,0,0,1,1.4-.9,4.875,4.875,0,0,1,3.516,0,4.347,4.347,0,0,1,1.4.9,4.257,4.257,0,0,1,.935,1.34,4.12,4.12,0,0,1,0,3.287,4.234,4.234,0,0,1-.935,1.34,4.333,4.333,0,0,1-1.4.9,4.875,4.875,0,0,1-3.516,0,4.311,4.311,0,0,1-1.4-.9,4.24,4.24,0,0,1-.937-1.34A4,4,0,0,1,443.022,109.38Zm1.321,0a2.9,2.9,0,0,0,.24,1.175,2.949,2.949,0,0,0,.666.962,3.055,3.055,0,0,0,1,.643,3.327,3.327,0,0,0,2.436,0,3.087,3.087,0,0,0,1-.643,2.965,2.965,0,0,0,.666-.962,3,3,0,0,0,0-2.351,2.971,2.971,0,0,0-.666-.961,3.123,3.123,0,0,0-1-.644,3.327,3.327,0,0,0-2.436,0,3.09,3.09,0,0,0-1,.644,2.956,2.956,0,0,0-.666.961A2.91,2.91,0,0,0,444.343,109.38Z" transform="translate(-12.672 -13.01)"/><path class="cls-4" d="M460.963,105.179v8.4h-1.14l-4.68-6.06v6.06h-1.32v-8.4h1.14l4.68,6.061v-6.061Z" transform="translate(-12.672 -13.01)"/><path class="cls-4" d="M470.923,109.032v3a3.88,3.88,0,0,1-.9.78,5.3,5.3,0,0,1-1.128.54,5.052,5.052,0,0,1-3.33-.088,4.322,4.322,0,0,1-1.4-.9,4.237,4.237,0,0,1-.936-1.34,4.12,4.12,0,0,1,0-3.287,4.26,4.26,0,0,1,.936-1.34,4.336,4.336,0,0,1,1.4-.9,4.633,4.633,0,0,1,1.758-.328,4.128,4.128,0,0,1,1.5.248,5.005,5.005,0,0,1,1.068.555,4.557,4.557,0,0,1,.852.793l-.84.775a2.683,2.683,0,0,0-.636-.58,3.814,3.814,0,0,0-.81-.407,3.446,3.446,0,0,0-2.352.047,3.112,3.112,0,0,0-1,.644,2.956,2.956,0,0,0-.666.961,3,3,0,0,0,0,2.351,2.949,2.949,0,0,0,.666.962,3.076,3.076,0,0,0,1,.643,3.193,3.193,0,0,0,1.218.231,3.665,3.665,0,0,0,1.02-.126,2.931,2.931,0,0,0,.708-.294,2.255,2.255,0,0,0,.552-.419v-1.32h-1.62v-1.2Z" transform="translate(-12.672 -13.01)"/><path class="cls-4" d="M479.143,112.38v1.2h-6.06v-8.4h5.939v1.2H474.4V108.6h3.66v1.2H474.4v2.58Z" transform="translate(-12.672 -13.01)"/><g id="Image"><circle id="cercle_exterieur" data-name="cercle exterieur" class="cls-3" cx="319.758" cy="88.23" r="31.581" transform="translate(-21.674 119.339) rotate(-23.069)"/><path id="cercle_interieur" data-name="cercle interieur" class="cls-5" d="M295.657,88.23a24.1,24.1,0,1,1,24.1,24.1A24.1,24.1,0,0,1,295.657,88.23Z" transform="translate(-12.672 -13.01)"/><g id="_-_Gaspard_-_Monge_-" data-name="- Gaspard - Monge -"><path class="cls-4" d="M295.78,102.068l-.787-1.46.918-.5.787,1.461Z" transform="translate(-12.672 -13.01)"/><path class="cls-4" d="M292.717,85.952l-1.006-.08.156-1.957,2.062.164a3.894,3.894,0,0,1,.536,1.044,2.9,2.9,0,0,1,.082,1.036,2.18,2.18,0,0,1-.389,1.166,1.907,1.907,0,0,1-.931.644,3.385,3.385,0,0,1-1.353.147,3.222,3.222,0,0,1-1.355-.387,1.972,1.972,0,0,1-.825-.882,2.3,2.3,0,0,1-.144-1.14,2.681,2.681,0,0,1,.227-1,1.327,1.327,0,0,1,.494-.523,2.162,2.162,0,0,1,.8-.272l.16,1.242a.787.787,0,0,0-.439.222.713.713,0,0,0-.181.448.781.781,0,0,0,.287.691,1.875,1.875,0,0,0,1.061.333,1.938,1.938,0,0,0,1.141-.16.816.816,0,0,0,.393-.67,1.114,1.114,0,0,0-.041-.412,2,2,0,0,0-.211-.461l-.455-.036Z" transform="translate(-12.672 -13.01)"/><path class="cls-4" d="M294.687,80.64l-.381,1.395.721.4-.341,1.253-4.277-2.766.364-1.337,5.089-.214-.349,1.283Zm-1.083-.021-1.8-.019,1.564.893Z" transform="translate(-12.672 -13.01)"/><path class="cls-4" d="M294.535,78.444l.433-1.132a1.208,1.208,0,0,0,.548.081.635.635,0,0,0,.506-.382.56.56,0,0,0,.042-.443.487.487,0,0,0-.252-.281.479.479,0,0,0-.367-.018,1.475,1.475,0,0,0-.53.469,2.583,2.583,0,0,1-1.042.827,1.279,1.279,0,0,1-1-.075,1.426,1.426,0,0,1-.561-.467,1.272,1.272,0,0,1-.238-.722,2.217,2.217,0,0,1,.259-1,1.825,1.825,0,0,1,.823-.94,1.579,1.579,0,0,1,1.207.024l-.435,1.117a.823.823,0,0,0-.517-.021.58.58,0,0,0-.315.318.462.462,0,0,0-.042.35.374.374,0,0,0,.2.216.287.287,0,0,0,.227,0,.943.943,0,0,0,.344-.31,4.894,4.894,0,0,1,.9-.9,1.373,1.373,0,0,1,.71-.245,1.528,1.528,0,0,1,.72.159,1.742,1.742,0,0,1,.685.564,1.452,1.452,0,0,1,.281.806,2.143,2.143,0,0,1-.239.983,1.837,1.837,0,0,1-1.049,1.112A2.055,2.055,0,0,1,294.535,78.444Z" transform="translate(-12.672 -13.01)"/><path class="cls-4" d="M293.959,72.38l1.2-1.736a1.31,1.31,0,0,1,.907-.629,1.61,1.61,0,0,1,1.1.345,1.654,1.654,0,0,1,.73.964,1.461,1.461,0,0,1-.313,1.174l-.4.573,1.48,1.025-.728,1.05Zm2.429.13.176-.256a.714.714,0,0,0,.171-.511.528.528,0,0,0-.232-.342.514.514,0,0,0-.8.2l-.207.3Z" transform="translate(-12.672 -13.01)"/><path class="cls-4" d="M301.621,69.335,300.6,70.368l.431.7-.912.925-2.37-4.507.974-.988,4.54,2.307-.934.947Zm-.934-.546-1.561-.9.924,1.548Z" transform="translate(-12.672 -13.01)"/><path class="cls-4" d="M303.687,68.506l-2.793-3.966,1.73-1.219a2.64,2.64,0,0,1,.8-.421.994.994,0,0,1,.666.072,1.726,1.726,0,0,1,.89,1.185,1.266,1.266,0,0,1-.054.619,1.433,1.433,0,0,1-.254.414,1.231,1.231,0,0,1,.373-.045,1.47,1.47,0,0,1,.313.092,1.8,1.8,0,0,1,.318.144l1.313.8L305.821,67l-1.409-.82a1.125,1.125,0,0,0-.4-.175.489.489,0,0,0-.32.088l-.091.065,1.133,1.609Zm-.619-3.094.44-.307a1.884,1.884,0,0,0,.236-.249.337.337,0,0,0,.081-.243.516.516,0,0,0-.1-.277.487.487,0,0,0-.312-.222.679.679,0,0,0-.458.17l-.457.323Z" transform="translate(-12.672 -13.01)"/><path class="cls-4" d="M305.421,61.552l1.713-.8a1.929,1.929,0,0,1,.893-.217,1.515,1.515,0,0,1,.73.226,2.266,2.266,0,0,1,.623.57,4.256,4.256,0,0,1,.487.809,3.847,3.847,0,0,1,.373,1.158,2.062,2.062,0,0,1-.077.826,1.331,1.331,0,0,1-.357.59,2.5,2.5,0,0,1-.631.438l-1.713.8Zm1.616.461,1.113,2.405.284-.13a1.135,1.135,0,0,0,.469-.334.683.683,0,0,0,.087-.441,2.681,2.681,0,0,0-.267-.8,1.852,1.852,0,0,0-.638-.867.819.819,0,0,0-.761.037Z" transform="translate(-12.672 -13.01)"/><path class="cls-4" d="M322.621,60.7l1.647.219-.138,1.033-1.646-.218Z" transform="translate(-12.672 -13.01)"/><path class="cls-4" d="M337.987,64l1.255,1.1-1.465,2.642,2.432-1.79,1.25,1.1-3.2,3.643-.779-.686,2.443-2.779-3.048,2.247-.705-.62,1.841-3.308-2.444,2.778-.781-.687Z" transform="translate(-12.672 -13.01)"/><path class="cls-4" d="M340.712,69.833a2.788,2.788,0,0,1,1.816-.663,1.935,1.935,0,0,1,1.467.851,1.965,1.965,0,0,1,.431,1.656,2.71,2.71,0,0,1-1.123,1.539,3.465,3.465,0,0,1-1.261.645,1.914,1.914,0,0,1-1.1-.052,2.023,2.023,0,0,1-.931-.732A2.3,2.3,0,0,1,339.531,72a1.887,1.887,0,0,1,.217-1.089A3.172,3.172,0,0,1,340.712,69.833Zm.757,1.02a1.866,1.866,0,0,0-.7.82.786.786,0,0,0,.755,1.014,2.045,2.045,0,0,0,1.037-.5,1.7,1.7,0,0,0,.66-.789.75.75,0,0,0-.131-.7.719.719,0,0,0-.627-.3A1.857,1.857,0,0,0,341.469,70.853Z" transform="translate(-12.672 -13.01)"/><path class="cls-4" d="M346.106,73.272l.517,1.067L344.886,76.9l2.414-1.172.523,1.077-4.364,2.12-.523-1.076,1.724-2.55-2.4,1.163-.523-1.074Z" transform="translate(-12.672 -13.01)"/><path class="cls-4" d="M346.018,81.376l.977-.258.5,1.9-2,.527a3.823,3.823,0,0,1-.851-.807,2.908,2.908,0,0,1-.422-.952,2.183,2.183,0,0,1-.019-1.229,1.911,1.911,0,0,1,.664-.916,3.317,3.317,0,0,1,1.228-.586,3.19,3.19,0,0,1,1.406-.085,1.953,1.953,0,0,1,1.07.559,2.288,2.288,0,0,1,.515,1.028,2.719,2.719,0,0,1,.12,1.023,1.34,1.34,0,0,1-.294.658,2.13,2.13,0,0,1-.665.521l-.562-1.12a.775.775,0,0,0,.34-.354.719.719,0,0,0,.024-.484.783.783,0,0,0-.5-.556,1.871,1.871,0,0,0-1.11.036,1.94,1.94,0,0,0-1.024.531.819.819,0,0,0-.147.762,1.133,1.133,0,0,0,.174.376,1.961,1.961,0,0,0,.353.364l.441-.117Z" transform="translate(-12.672 -13.01)"/><path class="cls-4" d="M349.763,84.184l.266,3.393L349,87.659l-.166-2.124-.77.06.156,1.97-.986.078-.156-1.971-.952.075.171,2.186-1.1.086-.271-3.454Z" transform="translate(-12.672 -13.01)"/><path class="cls-4" d="M344.67,100.308l-.77,1.472-.924-.483.77-1.471Z" transform="translate(-12.672 -13.01)"/></g><g id="Institut"><path class="cls-4" d="M306.584,110.022l1.106.633-2.409,4.212-1.106-.632Z" transform="translate(-12.672 -13.01)"/><path class="cls-4" d="M308.491,111.147l1.1.439.442,3.067,1-2.491,1.112.445-1.8,4.5-1.113-.445-.44-3.045-.99,2.473-1.108-.443Z" transform="translate(-12.672 -13.01)"/><path class="cls-4" d="M311.9,115.905l1.2.165a1.223,1.223,0,0,0,.048.551.631.631,0,0,0,.486.405.565.565,0,0,0,.441-.058.494.494,0,0,0,.218-.311.479.479,0,0,0-.067-.361,1.5,1.5,0,0,0-.578-.41,2.606,2.606,0,0,1-1.043-.825,1.288,1.288,0,0,1-.155-.99,1.448,1.448,0,0,1,.327-.653,1.279,1.279,0,0,1,.649-.4,2.256,2.256,0,0,1,1.031.025,1.846,1.846,0,0,1,1.1.589,1.588,1.588,0,0,1,.251,1.179l-1.19-.17a.809.809,0,0,0-.1-.507.581.581,0,0,0-.381-.235.469.469,0,0,0-.35.04.36.36,0,0,0-.166.24.29.29,0,0,0,.048.224.956.956,0,0,0,.377.264,4.732,4.732,0,0,1,1.08.668,1.351,1.351,0,0,1,.4.635,1.539,1.539,0,0,1,.011.737,1.728,1.728,0,0,1-.395.794,1.442,1.442,0,0,1-.723.457,2.153,2.153,0,0,1-1.01-.008,1.819,1.819,0,0,1-1.321-.77A2.034,2.034,0,0,1,311.9,115.905Z" transform="translate(-12.672 -13.01)"/><path class="cls-4" d="M316.469,113.545l3.856.2-.063,1.2-1.294-.067-.189,3.651-1.269-.067.19-3.65-1.293-.067Z" transform="translate(-12.672 -13.01)"/><path class="cls-4" d="M321.041,113.658l1.269-.095.36,4.84-1.269.094Z" transform="translate(-12.672 -13.01)"/><path class="cls-4" d="M323.016,113.553l3.781-.777.243,1.173-1.27.26.736,3.579-1.243.254-.737-3.576-1.268.261Z" transform="translate(-12.672 -13.01)"/><path class="cls-4" d="M329.679,111.689l1.18-.463,1.055,2.7a2.79,2.79,0,0,1,.189.8,1.827,1.827,0,0,1-.088.751,1.42,1.42,0,0,1-.328.561,2.207,2.207,0,0,1-.768.474,4.842,4.842,0,0,1-.629.194,1.532,1.532,0,0,1-.624.031,1.561,1.561,0,0,1-.558-.231,1.613,1.613,0,0,1-.455-.423,3.275,3.275,0,0,1-.411-.72l-1.053-2.695,1.181-.462,1.08,2.759a.938.938,0,0,0,.4.51.71.71,0,0,0,.962-.373.94.94,0,0,0-.053-.649Z" transform="translate(-12.672 -13.01)"/><path class="cls-4" d="M331.205,111.057l3.309-1.994.617,1.026-1.11.669,1.885,3.129-1.089.656-1.884-3.13-1.111.669Z" transform="translate(-12.672 -13.01)"/></g><g id="cercles"><path class="cls-4" d="M319.758,112.737A24.508,24.508,0,1,1,344.267,88.23,24.535,24.535,0,0,1,319.758,112.737Zm0-48.2A23.694,23.694,0,1,0,343.452,88.23,23.721,23.721,0,0,0,319.758,64.536Z" transform="translate(-12.672 -13.01)"/><path class="cls-4" d="M319.758,120.219A31.989,31.989,0,1,1,351.746,88.23,32.025,32.025,0,0,1,319.758,120.219Zm0-63.163A31.174,31.174,0,1,0,350.932,88.23,31.209,31.209,0,0,0,319.758,57.056Z" transform="translate(-12.672 -13.01)"/></g><g id="tete"><g class="cls-6"><path class="cls-7" d="M325.53,66.059a9.668,9.668,0,0,0-2.508.88c-.76.462-1.289,1.452-2.356,1.322a.9.9,0,0,1,.269-.691,3.772,3.772,0,0,1,2.22-1.2c.313-.067.756-.071.728-.422-.017-.216-.309-.223-.44-.345.755-.365,1.516.218,2.087.461" transform="translate(-12.672 -13.01)"/><path class="cls-7" d="M326.3,66.652c-.291.534-1.063.624-1.224,1.243-.222.855.87,1.223.613,1.955-.112.315-.759.381-.9.67a.916.916,0,0,0-.1.42c.008.87,1.074,1.272,1.379,1.915-.168.124-.406-.014-.574-.1a15.57,15.57,0,0,1-2.91-2.028c-.161-.13-.433-.371-.671-.231a.366.366,0,0,0-.115.384c.025.124.158.22.23.324.1.15.206.323.307.48s.253.344.191.535a8.17,8.17,0,0,1-3.179-2.125c-.121-.113-.292-.317-.421-.324-.207-.015-.289.154-.42.247a.92.92,0,0,1-.154-.593,2.5,2.5,0,0,0-.057,1.072,5.983,5.983,0,0,1-.958.384c-.02-.067.163-.2.192-.346.09-.475-.158-1.272.172-1.8.119-.191.515-.418.651-.574a.6.6,0,0,0,.154-.4c-.068-.28-.668-.089-.863-.249.327-.654,1.258-.716,1.953-1.015.228-.1.431-.309.691-.249a4.942,4.942,0,0,1-.519.536,7.131,7.131,0,0,0-1,1.187,2.231,2.231,0,0,0-.441,1.436,5.708,5.708,0,0,1,.805-1.551,3.912,3.912,0,0,1,.918-1.052,7.37,7.37,0,0,1,2.031-.938c.482-.166,1.123-.41,1.474.057a2.666,2.666,0,0,1-.747.325,6.32,6.32,0,0,0-1.226.384,2.89,2.89,0,0,0-.937.9,1.042,1.042,0,0,0-.287.573c.02.33.452.487.841.365a4.081,4.081,0,0,0,1-.614c.318-.225.639-.459.938-.67a4.218,4.218,0,0,1,2.8-.956.73.73,0,0,1,.363.421" transform="translate(-12.672 -13.01)"/><path class="cls-7" d="M321.528,65.886c-.105.053-.192-.025-.268-.058.046-.115.28-.123.268.058" transform="translate(-12.672 -13.01)"/><path class="cls-7" d="M321.241,65.848c.121.226-.219.371-.4.286a.288.288,0,0,1,.4-.286" transform="translate(-12.672 -13.01)"/><path class="cls-7" d="M316.99,67.648a2.369,2.369,0,0,0-.306,1.206c-.006.153.012.433-.077.477-.182.1-.4-.4-.46-.516-.148-.3-.312-.647-.765-.517a.936.936,0,0,0-.594,1.053.977.977,0,0,1,.67.69,7.653,7.653,0,0,1-2.315-.9,2.264,2.264,0,0,0-.786-.287c-.18,0-.261.121-.421.172.211.61-.171.778-.728.843a4.054,4.054,0,0,1-.919.057.772.772,0,0,1,.306-.478,2.664,2.664,0,0,1,.4-.307,11.4,11.4,0,0,1,2.815-.69c.447-.114.9-.273,1.322-.42a3.216,3.216,0,0,1,1.856-.383" transform="translate(-12.672 -13.01)"/><path class="cls-7" d="M318.293,67.877c-.846.426-1.026,1.71-1.054,2.777-.14.114-.4.11-.536.23-.213-.17-.238-.467-.4-.633-.181-.182-.5-.2-.67-.4-.1-.115-.049-.287-.153-.461s-.416-.093-.517-.267c.018-.764.756-.616,1.053-.192.163.233.164.79.478.709.451-.116.262-1.273.518-1.627.313-.438.8-.339,1.283-.135" transform="translate(-12.672 -13.01)"/><path class="cls-7" d="M328.9,71.284a2.752,2.752,0,0,1-.8-.707c-.231-.273-.37-.614-.593-.9a2.494,2.494,0,0,0-.594-.459c-.182-.116-.537-.266-.536-.5,0-.281.466-.461.786-.363.438.134.735.6,1.052,1.014a3.518,3.518,0,0,1,.784,1.264.688.688,0,0,1-.1.65" transform="translate(-12.672 -13.01)"/><path class="cls-7" d="M313.85,73.161c.095-.116.169-.4.344-.382.312.035-.105.9-.19.919s-.127-.2-.154-.326c-.072-.047-.1.117-.191.116-.61-.6-2.052-.228-2.967-.461-.012-.081.259-.157.21-.038.338-.157,1.086-.224.822-.8-1.044-.586-2.215,1.067-3.292.363a1.325,1.325,0,0,1,.593-.5c.278-.148.852-.2.919-.48.1-.43-.385-.45-.67-.594a4.685,4.685,0,0,1,2.719-.937.943.943,0,0,0,.441-.058c0-.315-.25-.376-.269-.671.621-.285,1.035.2,1.647.462.658.282,1.118.291,1.513.764.146.176.154.6-.039.709-.347.2-1,.014-1.092.46-.04.2.1.319.1.439a1.3,1.3,0,0,1-.211.422,1.181,1.181,0,0,0-.229.593" transform="translate(-12.672 -13.01)"/><path class="cls-7" d="M318.7,70.443c.089-.169.072-.372.248-.4s.566.272.556.42c-.02.329-.658.055-.8-.018" transform="translate(-12.672 -13.01)"/><path class="cls-7" d="M316.99,71.132c-.715.477-1.9.491-2.432,1.149-.112-.024-.037-.309-.152-.383.354-.442,1.255-.339,1.244-.938-.006-.34-.271-.414-.211-.765a1.31,1.31,0,0,1,.843.459c.1.12.167.369.287.42s.3-.062.421.058" transform="translate(-12.672 -13.01)"/><path class="cls-7" d="M309.735,71.439c-.251.223-.784.265-1.036.421-.229-.286.344-.592.69-.555a.9.9,0,0,1,.346.134" transform="translate(-12.672 -13.01)"/><path class="cls-7" d="M308.776,76.091c-.069.171-.262.282-.421.4-.317.241-.672.392-1.015.631-.142.1-.34.31-.517.153.085-.251.363-.348.575-.478s.388-.3.573-.421a4.892,4.892,0,0,0,.518-.308c.016,0,.019.008.019.02a.453.453,0,0,1,.268,0" transform="translate(-12.672 -13.01)"/><path class="cls-7" d="M320.781,86.89c-.15.422-.946.47-1.551.556a3.17,3.17,0,0,1-1.186.134,1.727,1.727,0,0,1-.728-.4c.116-.208.37-.119.536-.077a2.746,2.746,0,0,0,.977.154c.279-.018.588-.028.842-.058.454-.052.8-.372,1.11-.306" transform="translate(-12.672 -13.01)"/><path class="cls-8" d="M323.864,65.273h.4a8.275,8.275,0,0,1,1.57.747c.226.117.441.213.651.345.195.122.375.273.574.4.8.52,1.866.792,2.3,1.667.077.157.111.326.19.479.15.284.358.561.536.842a3.575,3.575,0,0,0,.575.784,1.471,1.471,0,0,0,.23,0,4.011,4.011,0,0,0,.728.44c.372.16.868.29,1.053.633a6.521,6.521,0,0,1,.345,1.186,23.765,23.765,0,0,1,.823,3.715,17.323,17.323,0,0,1,.152,2.777,9.771,9.771,0,0,1-.152,1.147,5.275,5.275,0,0,0-.136.881,1.705,1.705,0,0,0-.152.537c-.031.136-.084.33-.114.46-.267,1.165-.49,2.077-.823,3.256-.261.918-.5,1.79-.709,2.6-.054.263-.151.592-.23.938a4.268,4.268,0,0,1-.21.8.45.45,0,0,1-.019.249c.008.113-.028-.008-.039.038a.8.8,0,0,1-.039.287c-.007.063-.01.313-.076.306.04.175-.066.289-.038.48-.044,0-.014.066-.019.076-.037.066.011.2-.057.211-.008.157.019.229-.039.306.244.494.581.924.862,1.4.557.941,1.045,1.95,1.569,2.947.251.479.445.989.689,1.477,1,1.994,2.05,4.4,2.922,6.558.113-.015.164.3.131.166.07.3-.039.283-.183.461a5.2,5.2,0,0,1-.456.55c-.474.435-.933.866-1.4,1.264a23.826,23.826,0,0,1-6.7,3.963,24.239,24.239,0,0,1-5.667,1.435,25.126,25.126,0,0,1-6.644-.076,24.127,24.127,0,0,1-10.187-4.04,23.7,23.7,0,0,1-6.783-7.32s-.619-.133-.1-.659,1.36-1,1.753-1.422c.009-.011.031-.029.038-.04a7.876,7.876,0,0,0,.67-1.473,24.56,24.56,0,0,1,2.163-4.27,16.449,16.449,0,0,1,1.934-2.356c.688-.687,1.521-1.2,2.3-1.934-.485-.654-.909-1.457-1.359-2.22a5.723,5.723,0,0,1-.537-1.014,3,3,0,0,1-.172-1.3,4.671,4.671,0,0,1,.268-1.245c.153-.421.414-1.216.861-.843a2.018,2.018,0,0,0,.192-1.052,2.262,2.262,0,0,0-.325-.766c-.068-.179.106-.17.114-.326.007-.121-.155-.315-.21-.44a2.2,2.2,0,0,1-.153-.441c-.1-.595-.054-1.5-.154-2.009-.015-.084-.177-.184-.229-.327-.259-.711.371-1.572.632-2.126a14.944,14.944,0,0,1,1.685-3.062c.355-.442.708-.863,1.073-1.3a4.54,4.54,0,0,1,1.244-1.149c.777-.409,1.893-.22,2.775-.631a12.72,12.72,0,0,1,1.838-.537c.311-.086.583-.236.862-.325.092-.028.435.015.556,0a3.423,3.423,0,0,0,.842-.382,2.989,2.989,0,0,1,.441-.173c.163-.05.343-.058.5-.114.178-.066.3-.254.46-.345s.361-.134.536-.211a5.394,5.394,0,0,1,2.776-.785,4.93,4.93,0,0,0,1.3-.1m-.421.325c.131.122.423.129.44.345.028.351-.415.355-.728.422a3.772,3.772,0,0,0-2.22,1.2.9.9,0,0,0-.269.691c1.067.13,1.6-.86,2.356-1.322a9.668,9.668,0,0,1,2.508-.88c-.571-.243-1.332-.826-2.087-.461m2.489.633a4.218,4.218,0,0,0-2.8.956c-.3.211-.62.445-.938.67a4.081,4.081,0,0,1-1,.614c-.389.122-.821-.035-.841-.365a1.042,1.042,0,0,1,.287-.573,2.89,2.89,0,0,1,.937-.9,6.32,6.32,0,0,1,1.226-.384,2.666,2.666,0,0,0,.747-.325c-.351-.467-.992-.223-1.474-.057a7.37,7.37,0,0,0-2.031.938,3.912,3.912,0,0,0-.918,1.052,5.708,5.708,0,0,0-.805,1.551,2.231,2.231,0,0,1,.441-1.436,7.131,7.131,0,0,1,1-1.187,4.942,4.942,0,0,0,.519-.536c-.26-.06-.463.152-.691.249-.695.3-1.626.361-1.953,1.015.195.16.795-.031.863.249a.6.6,0,0,1-.154.4c-.136.156-.532.383-.651.574-.33.527-.082,1.324-.172,1.8-.029.146-.212.279-.192.346a5.983,5.983,0,0,0,.958-.384,2.5,2.5,0,0,1,.057-1.072.92.92,0,0,0,.154.593c.131-.093.213-.262.42-.247.129.007.3.211.421.324a8.17,8.17,0,0,0,3.179,2.125c.062-.191-.09-.377-.191-.535s-.205-.33-.307-.48c-.072-.1-.2-.2-.23-.324a.366.366,0,0,1,.115-.384c.238-.14.51.1.671.231a15.57,15.57,0,0,0,2.91,2.028c.168.082.406.22.574.1-.3-.643-1.371-1.045-1.379-1.915a.916.916,0,0,1,.1-.42c.142-.289.789-.355.9-.67.257-.732-.835-1.1-.613-1.955.161-.619.933-.709,1.224-1.243a.73.73,0,0,0-.363-.421m-4.672-.4c.076.033.163.111.268.058.012-.181-.222-.173-.268-.058m-.421.306c.183.085.523-.06.4-.286a.288.288,0,0,0-.4.286m1.819,5.706a2.417,2.417,0,0,0,.115.306c.165.263.532.2.88.23a1.855,1.855,0,0,1,1.627,1.59,4.666,4.666,0,0,1,.039,1.857,2.061,2.061,0,0,1-.67,1.226,15.235,15.235,0,0,0-1.513,1.148,1.508,1.508,0,0,1-.154.306c-.1.231.085.636.116,1.073a6.789,6.789,0,0,1-.076,1.379c-.047,0-.044.146-.077.21-.119.239-.429.419-.594.613a5.678,5.678,0,0,1,1.035.574c.109.093.183.231.3.307s.267.1.4.191c.108.073.226.164.345.249a1.651,1.651,0,0,0,1.589.421c.044-.1-.087-.215-.076-.344,0-.038.1-.129.056-.173.385.207.629-.273,1.072-.249.288.017.913.536.958.116a2.066,2.066,0,0,0,1.666.516c.318-.062.372-.436.5-.747.287-.709.57-1.368.786-2.067a6.278,6.278,0,0,0,.288-2.853,29.311,29.311,0,0,0-1.533-5.916c.556-.844-.257-1.738-.727-2.087-.09.5.288.8.21,1.3a.568.568,0,0,1-.938.307c-.441-.4-.7-1.279-1.186-1.647-.27-.206-.74-.286-.883-.613a.715.715,0,0,1,.651-1.033,1.514,1.514,0,0,1,.977.554c.218.207.411.392.612.574.051.046.1.182.192.135.058-.359-.017-.533.059-.8a3.5,3.5,0,0,0,.975,1.569c.4.5.446,1.277.786,1.781a1.17,1.17,0,0,0,.709.5c.181.014.322-.1.5-.116.361-.04.593.2.957.153a.894.894,0,0,0-.344-.8c-.563-.487-1.561-.494-2.03-1.168-.092-.132-.117-.306-.229-.478-.092-.138-.246-.231-.346-.384-.212-.323-.3-.637-.517-.975-.108-.169-.377-.607-.517-.229-.081-.619-.424-.632-.881-.959-.357-.256-.63-.545-1.148-.459a2.442,2.442,0,0,0-.957.516.994.994,0,0,0-.384.71c.009.654.8.973.69,1.685-.064.42-.662.479-.881.746a.82.82,0,0,0-.153.42c-.007.585.735.906,1.034,1.265.209.251.4.615.173.881a1.155,1.155,0,0,1-1.072-.288c-.412-.267-.728-.514-1.111-.727-.2-.111-.421-.181-.613-.307a3.586,3.586,0,0,1-.613-.689c-.176-.207-.387-.5-.708-.42.086.4.452.735.632,1.128m-7.524-3.809c-.421.147-.875.306-1.322.42a11.4,11.4,0,0,0-2.815.69,2.664,2.664,0,0,0-.4.307.772.772,0,0,0-.306.478,4.054,4.054,0,0,0,.919-.057c.557-.065.939-.233.728-.843.16-.051.241-.169.421-.172a2.264,2.264,0,0,1,.786.287,7.653,7.653,0,0,0,2.315.9.977.977,0,0,0-.67-.69.936.936,0,0,1,.594-1.053c.453-.13.617.217.765.517.058.116.278.612.46.516.089-.044.071-.324.077-.477a2.369,2.369,0,0,1,.306-1.206,3.216,3.216,0,0,0-1.856.383m1.876-.019c-.256.354-.067,1.511-.518,1.627-.314.081-.315-.476-.478-.709-.3-.424-1.035-.572-1.053.192.1.174.41.09.517.267s.057.346.153.461c.17.2.489.219.67.4.164.166.189.463.4.633.136-.12.4-.116.536-.23.028-1.067.208-2.351,1.054-2.777-.486-.2-.97-.3-1.283.135m11.984,2.622a3.518,3.518,0,0,0-.784-1.264c-.317-.412-.614-.88-1.052-1.014-.32-.1-.783.082-.786.363,0,.233.354.383.536.5a2.494,2.494,0,0,1,.594.459c.223.286.362.627.593.9a2.752,2.752,0,0,0,.8.707.688.688,0,0,0,.1-.65m-14.915,1.934a1.3,1.3,0,0,0,.211-.422c0-.12-.136-.237-.1-.439.089-.446.745-.26,1.092-.46.193-.111.185-.533.039-.709-.395-.473-.855-.482-1.513-.764-.612-.265-1.026-.747-1.647-.462.019.3.271.356.269.671a.943.943,0,0,1-.441.058,4.685,4.685,0,0,0-2.719.937c.285.144.774.164.67.594-.067.276-.641.332-.919.48a1.325,1.325,0,0,0-.593.5c1.077.7,2.248-.949,3.292-.363.264.579-.484.646-.822.8.049-.119-.222-.043-.21.038.915.233,2.357-.135,2.967.461.09,0,.119-.163.191-.116.027.123.058.334.154.326s.5-.884.19-.919c-.175-.021-.249.266-.344.382a1.181,1.181,0,0,1,.229-.593m5.42-2.107c.01-.148-.368-.453-.556-.42s-.159.233-.248.4c.146.073.784.347.8.018m-2.93.613c-.12-.051-.186-.3-.287-.42a1.31,1.31,0,0,0-.843-.459c-.06.351.2.425.211.765.011.6-.89.5-1.244.938.115.074.04.359.152.383.536-.658,1.717-.672,2.432-1.149-.122-.12-.293,0-.421-.058m-3.2,13.289c-.091.507-.431,1-.556,1.532a6.414,6.414,0,0,0-.038,2.278,2.36,2.36,0,0,0,.326,1.015,3.927,3.927,0,0,0,1.972,1.339,3.478,3.478,0,0,1,1.129.537c.518.52.805,1.728,1.685,1.819s.916-.905,1.186-1.455a4.152,4.152,0,0,1,.729-.9,10.875,10.875,0,0,1,.689-.937,1.814,1.814,0,0,1,1.111-.479c.541.047.821.477,1.091.843-.391.1-.4-.222-.71-.383-.094.018-.193.05-.381.095a1.464,1.464,0,0,0-.383.516c-.028-.081-.087.137-.1.174a.962.962,0,0,0-.019.229c-.086-.056.027.124-.056.058-.017.09.046.052.056.077-.075.353-.376.783-.287,1.148a6.132,6.132,0,0,1,2.2.4,4.54,4.54,0,0,0,1.608.325c.381-.028.539-.708.593-1,.11-.574.155-1.2.23-1.895s.115-1.363.135-1.934a17.221,17.221,0,0,0-.078-2.374.42.42,0,0,0-.037-.154c-.014-.113.014-.264-.077-.325-.259-.175-.747-.161-.728-.594-.1-.072-.169-.039-.287-.1s-.231-.256-.344-.229c-.07.016-.14.17-.173.249a3.57,3.57,0,0,0-.211.861c0,.008.04.067.038.077,0,.224-.135.514-.038.689-.062-.079-.037.157,0,.192-.082-.052-.018.043-.018.038,0,.477-.036,1.123-.04,1.4,0,.1-.016.027-.037.114s.014.251-.058.288c.053.019-.057.094,0,.172-.1-.016-.065.126-.077.172a6.963,6.963,0,0,1-.287.939c-.282.164-.348-.324-.382-.537a7.188,7.188,0,0,1-.077-1.609c-.022-.058-.066-.094-.039-.152.061-.059.048-.26,0-.268-.01-.2.02-.255,0-.441a4.851,4.851,0,0,0-.267-1.149c-.085.063-.053.041-.1.1a5.6,5.6,0,0,0-.153.556c-.025.046-.038.012-.059.038a3.663,3.663,0,0,1-2.106,2.03,4.04,4.04,0,0,1-1.224.268,2.019,2.019,0,0,1-1.952-1.092c.07,0,.046-.028.036-.077.665-.355,1.355.18,2.088.153a5.7,5.7,0,0,0,1.284-.287,2.836,2.836,0,0,0,1.052-.517c.144-.126.3-.312.249-.478-.151-.07-.272-.06-.345-.191.06-.2-.163-.525-.21-.824-.03-.184-.053-.28-.21-.344,0,0-.008-.032-.02-.039a.421.421,0,0,0-.268,0,1.5,1.5,0,0,1-.691,1.015,1.4,1.4,0,0,1-1.167,0c-.013-.063-.069-.085-.115-.116.032-.05-.054-.115-.075-.171.032.021-.033-.128-.059-.231s-.093-.243-.058-.248c-.1-.114-.345-.026-.42,0-.312.263-.125.811.192,1.091.726.641,1.893.117,2.718-.133-.057.117.006.157-.019.268a1.675,1.675,0,0,1-1.321.632,3.158,3.158,0,0,1-1.838-.613c-.158-.2-.18-.446-.364-.595-.09-.07-.193-.057-.249-.171-.017-.055-.021-.117-.038-.173-.39.032-.842.405-1.4.344a.571.571,0,0,1-.421-.21c-.049-.08-.014-.172-.058-.23-.17-.221-.462-.008-.632-.134a5.31,5.31,0,0,1,3.044-2.928c.072.056.065.19.154.229.305-.048.291-.411.594-.459.052.182.011.43.173.459.206.036.283-.435.554-.325,0,.169.039.255.173.325.181-.116.515-.533,1-.537.1.183-.007.28-.021.479.458.083.874-.238,1.322-.23a2.246,2.246,0,0,0,.421.04c.6-.1.924-.725,1.091-1.245-.031-.1-.007-.32-.038-.48a4.5,4.5,0,0,1-.173-1.224.384.384,0,0,0,.04-.25c.072-.035.05-.114.076-.172.427-.976,1.827-1.374,2.2-2.336.359-.92.294-3.022-.937-3.159-.116-.011-.159.025-.248.019a8.134,8.134,0,0,1-3.926-1.55,2.248,2.248,0,0,0-1.13-.517,2.615,2.615,0,0,0-1.206.286c-.606.256-1.12.585-1.761.824a3.579,3.579,0,0,0-.882.345,2.376,2.376,0,0,0-.5,1.111,10.934,10.934,0,0,1-1.685,2.68,4.234,4.234,0,0,0-.65,1.608c-.259,1.915,1.688,2.744,1.762,4.653a6.4,6.4,0,0,1-.479,2.068c0-.02-.01-.049-.019-.02Zm-3.983-13.058c-.346-.037-.919.269-.69.555.252-.156.785-.2,1.036-.421a.9.9,0,0,0-.346-.134M310.1,82.87a4.688,4.688,0,0,0-.363.747,3.312,3.312,0,0,0-.328,1.665,1.038,1.038,0,0,0,1.035.842,2.6,2.6,0,0,0,1.322-.44,4.106,4.106,0,0,0,.976-.8,3.608,3.608,0,0,0,.727-1.033,3.947,3.947,0,0,0,.287-1.494,2.16,2.16,0,0,0-.382-1.111c-.163-.3-.363-.687-.556-1a5.5,5.5,0,0,1-.862-1.8c0-.037-.034-.027-.037-.039a3.478,3.478,0,0,1-.039-.938c.116-1.592,1.9-2.177,1.972-3.734-1.118-.381-2.511-.2-3.58-.535a.885.885,0,0,1,0-.308c.339-.255,1.1-.09,1.225-.554-.307-.139-.555.057-.823.171a4.9,4.9,0,0,1-1.57.383,2.206,2.206,0,0,1-.613,0c-.1-.021-.128-.112-.249-.134-.312.412-.969.927-.786,1.59a2.193,2.193,0,0,1,1.322-.518,7.966,7.966,0,0,1,2.183.479c.271.246.806.465.977.824.046.1.143.348-.077.4a2.463,2.463,0,0,0-1.379-1.092c-.216-.074-.43-.171-.612-.229-.236-.076-.457.03-.766,0s-.548-.181-.785-.115a2.128,2.128,0,0,0-.421.267,2.611,2.611,0,0,0-1.417,1.839c.394.317.836-.2,1.033-.4a3.043,3.043,0,0,1,2.011-.975,3.3,3.3,0,0,1,2.049.593c.418.295-.089.236-.307.153a7.682,7.682,0,0,0-1.359-.5,1.941,1.941,0,0,0-1.474.4c-.314.184-.614.345-.728.651.232.046.324-.191.594-.268a2.275,2.275,0,0,1,.631-.076c.145.014.318.15.306.249s-.229.18-.172.345c.453-.048,2.234-.647,1.953.44-1.156.858-2.837.881-3.255,2.24-.063.207,0,.457-.057.726-.034.154-.19.177-.23.308a3,3,0,0,0,0,.554c-.038.5-.156.963.038,1.207a4.54,4.54,0,0,0,.843-.039c-.069.064-.092.064-.115.154-.69.314.211.689.536,1.034.107.114.127.239.211.307a1.9,1.9,0,0,1,0,.842,3.415,3.415,0,0,1-.191,1.283c-.073.181-.36.773-.67.727-.155-.022-.223-.217-.173-.44.057-.251.32-.477.479-.747a1.768,1.768,0,0,0,.306-.919c-.063-.1-.046-.227-.1-.344-.231-.535-.918-.665-1.072-.095a5.055,5.055,0,0,0-.02.842,7.574,7.574,0,0,1-.018.823c-.026.189-.074.7-.4.459a10.976,10.976,0,0,0,.057-2.183,2.915,2.915,0,0,1,.363-1.32c-.466-.267-.7.051-.937.421a3.3,3.3,0,0,0,.727,3.963c.538-.49,1.011.179,1.322.574a3.751,3.751,0,0,0,.841.824c.3-.638-.155-1.694-.268-2.356a.5.5,0,0,0-.057-.365c.075.056.013-.134.019-.133a2.212,2.212,0,0,1,0-.459c.01-.088-.007-.18,0-.268a3.263,3.263,0,0,1,.556-1.569,5.612,5.612,0,0,0,.8-1.284c-.329-.227-.647.136-1.015.25a2.157,2.157,0,0,1-.689.037.357.357,0,0,0-.172-.095,4.571,4.571,0,0,1,2.028-.461,3.013,3.013,0,0,1-.611,1.553m-1.59-6.779c0-.012,0-.022-.019-.02a4.892,4.892,0,0,1-.518.308c-.185.121-.365.292-.573.421s-.49.227-.575.478c.177.157.375-.053.517-.153.343-.239.7-.39,1.015-.631.159-.121.352-.232.421-.4a.453.453,0,0,0-.268,0m-1.685.5a.156.156,0,0,0,.1.212c.175-.095.264-.273.479-.326,0-.184-.514-.028-.575.114m3.159.422c.117-.066.756-.417.747-.516-.02-.207-.742-.11-.861-.078a4.791,4.791,0,0,0-1.742,1.015,3.274,3.274,0,0,0-.442.556c-.081.135-.2.325-.114.421a25.571,25.571,0,0,1,2.412-1.4m-2.968,1.647c.236-.27.258-.7.479-.978.09-.113.231-.156.268-.305-.044.005-.02-.055-.057-.057-.556.018-1.289,1.021-.69,1.34m8.12,5.476c-.064.081-.058.2-.117.23-.029.192.186.408.327.286.288-.037.419-.4.651-.554-.038-.013.019-.064-.02-.076-.125-.224-.66-.122-.841.114m4.23.613c0-.056.005-.067.04-.039.037-.053.085-.124.113-.134-.029,0-.062-.053,0-.038.011-.037-.05-.1-.057-.057-.038-.06-.341.265-.1.268m3.39.536c0-.022.02-.029.037-.039-.007.028-.022.033,0,.056-.018,0-.057,0-.057.02A21.791,21.791,0,0,0,323,88.287c.035-.046-.015.058.02.058.025-.026.039,0,.1,0a2.411,2.411,0,0,0,.192-.728c.007-.068.025-.225-.02-.211a2.965,2.965,0,0,0,.1-.631,3.213,3.213,0,0,1-.059-.344c.007-.079.044-.3-.018-.287.025-.367-.143-.684-.154-1.054,0,.01-.015.022-.019,0,.068-.035-.034-.387-.154-.344-.183.017-.24.405-.228.536m5.151-.364a.1.1,0,0,0,.018.077c-.094.12.1-.125.038-.077-.026.007-.032.022-.056,0m-.4,2.01c-.141-.334.595-.726.211-.8-.192-.038-.393.013-.555-.1s-.144-.232-.269-.344c.018-.114-.152-.35-.21-.479a.257.257,0,0,0-.345.171,13.07,13.07,0,0,0-.23,1.4c-.053-.043-.045.279-.076.307-.039.307-.108.705-.153,1.148a5.95,5.95,0,0,0,.593,3.6,4,4,0,0,1,.822,1.551c.034.018.044.06.059.095a1.254,1.254,0,0,0,0,.441c.24.107.481-.219.516-.364a3.939,3.939,0,0,1,.364-1.054c.148-.117.213-.253.364-.364.248-.179.6-.23.8-.42a1.725,1.725,0,0,0,.307-1.359c-.061-.042-.05-.154-.114-.192-.184-.191-.761.1-1.055-.076-.026-.037.015-.077-.018-.134.04.038.061-.1.076-.192.362-.651,1.173-.95,1.685-1.435.04-.04.1-.082.134-.117a.9.9,0,0,0,.23-.478c-.078-.055-.224.126-.325.115a5.477,5.477,0,0,1-.536.346,2.938,2.938,0,0,1-2.012.19c-.091-.026-.147-.108-.248-.076-.32-.09-.513-.4-.671-.594-.069-.2.138-.261.154-.441.383.053,1.073.16,1.283-.134-.339-.134-.662.082-.785-.21m-19.644.9a1.981,1.981,0,0,0,1.282,1.32c.445.086.687-.446.518-.842-.206-.238-.606-.178-.824-.383a1.979,1.979,0,0,1-.23-.421c-.2-.343-.565-.789-.958-.728a2.273,2.273,0,0,0,.212,1.054m22.267-1.035a4.159,4.159,0,0,0-1.187.5c-.361.1-.769.325-1.073.4.082.092.242.085.364.1a2.133,2.133,0,0,0,1.552-.421,4.338,4.338,0,0,0,.344-.382c-.054-.042.052-.034,0-.1.041.04.061-.055.038-.077-.05.075,0,0-.038-.019m-10.454.4c-.254.03-.563.04-.842.058a2.746,2.746,0,0,1-.977-.154c-.166-.042-.42-.131-.536.077a1.727,1.727,0,0,0,.728.4,3.17,3.17,0,0,0,1.186-.134c.6-.086,1.4-.134,1.551-.556-.308-.066-.656.254-1.11.306m-2.738,5.5c-.015-.019,0-.014-.018-.037a4.907,4.907,0,0,1-.423-.786c-.8-1.091-2.438-1.064-3.292-2.05-.078-.088-.2-.289-.25-.286a2.076,2.076,0,0,0-.881-.881,2.236,2.236,0,0,0-.441,1.78,1.512,1.512,0,0,0,.059.423s-.018-.007-.019.056c0,.2.02.4.019.595a13.161,13.161,0,0,0,.364,2.834c.007.031-.026.065-.02.1a7.846,7.846,0,0,1,.23.822c0,.036.032-.012.039.02.769,2.341,2.981,3.922,5.647,4.67.021-.07.012-.079.057-.095a1.73,1.73,0,0,0-.669-1.245c.031-.042.021-.079.057-.077-.045-.046-.042.023-.076.04-.042-.045-.017-.051-.039-.1a12.706,12.706,0,0,1-1.148-.862c-.074-.107-.192-.265-.288-.287-.284-.536-.811-.919-.86-1.628.081-.04-.02-.332.057-.344-.061-.162.148-.955.056-1.072.021-.075.06-.009.057-.1-.093.052.067-.312-.017-.192.034-.073,0-.215.056-.267-.12-.006.056-.165-.039-.172.1-.105.029-.3.059-.44.4.353.78,1,1.474,1.092a1.214,1.214,0,0,0,1.284-.633,1.362,1.362,0,0,0,.018-.268c-.4-.2-.811-.3-1.053-.613m1.935,1.762c.164-.053.5.1.726.115a7.5,7.5,0,0,0,2.24-.25,3.893,3.893,0,0,0,.862-.21c.276-.207.194-.73.172-.881-.05-.1-.166-.157-.325-.287-.393-.317-1.255-.3-1.666-.67a1.484,1.484,0,0,1-.287-.422,1.186,1.186,0,0,1-.019-.765c.059.008.147-.28.248-.479.146-.286.242-.413.211-.555.023,0,.03.029.039,0-.069-.066-.007-.175-.077-.231-.123-.022-.191.1-.23.136s-.125.092-.21.172-.14.16-.191.21c-.028.027-.107.048-.136.077-.061.065-.116.129-.172.191a5.162,5.162,0,0,0-.689,1.034c-.016.035-.146.1-.095.173a.617.617,0,0,0-.193.364c-.1.024-.028.12-.113.135.018.025-.029.143-.058.093-.03.3-.188.389-.21.633a1.613,1.613,0,0,0-.231.421,2.037,2.037,0,0,1-1.895,1.034,3.884,3.884,0,0,1-.843-.286c.048-.114-.178-.109-.229-.039-.015.162-.115.241-.172.4.033-.02-.023.273-.077.23.091.119-.068.12.019.211-.045-.027-.058.327,0,.3a1.068,1.068,0,0,0,.115.557c.525,1.667,2.566,2.427,3.158,4.134-.024.093.14.391.116.538a4.908,4.908,0,0,0,2.68.995,3.088,3.088,0,0,0,2.643-1.015c0-.014.114-.258.134-.173.063-.1-.012-.024.02-.115.165-.106.2-.531.286-.823.024.263.034.541.057.8.169.3.749-.081,1.016-.228a8.055,8.055,0,0,0,2.182-1.9c0,.011-.014.023-.019,0a2.091,2.091,0,0,0,.632-1c.231-.863.026-1.738.517-2.6a3.9,3.9,0,0,0,.383-.517c0,.015,0,.038.018.038.065-.162.293-.337.345-.536.1-.356-.391-.489-.574-.421-.049.161-.174.145-.287.192a.6.6,0,0,0-.211.21,2.991,2.991,0,0,0-.306.479c-.056.143-.056.262-.115.4,0,0-.037-.023-.038-.021-.054.082-.054.27-.154.289-.28-.066-.352-.318-.592-.364.038.006-.071,0-.059,0-.385.046-.583.667-.708,1.034a1.7,1.7,0,0,0-.057.344c-.062-.038,0,.017-.057.038-.088.384-.3.858-.824.747-.206-.169-.4-.429-.613-.478a1.8,1.8,0,0,0-1.015.975c.038.178-.037.251.02.4-.021,0-.029-.028-.037,0,.035.015.012.057.056.019a12.993,12.993,0,0,1,.307,1.282c-.064-.084-.084-.21-.153-.287-.165-.033-.286-.252-.4-.343a1.714,1.714,0,0,0-1.093-.4,5.57,5.57,0,0,0-1.876.286.219.219,0,0,1-.268-.095c.364-.545,1.242-.637,2.011-.785a3.265,3.265,0,0,0,.842-.268c-.055.011-.065-.035-.076-.038a.964.964,0,0,0-.211,0,9.566,9.566,0,0,1-1.284.038,3.9,3.9,0,0,1-1.014-.171c-.237-.1-.05-.3-.037-.48a10,10,0,0,0,1.626.231,2.559,2.559,0,0,0,1.053-.174c.047-.035-.024-.077.039-.018.04-.081-.071-.093-.116-.116a2.025,2.025,0,0,0-.669-.171,9.989,9.989,0,0,0-3.141-.4,1.847,1.847,0,0,0-.441.039c-.22.072-.332.275-.553.382s-.548.19-.691.059c.292-.473.487-1.259,1.036-1.437m-4.6,8.176c.17.133.52.4.613.325-.032.028.07-.173,0-.134.03.008,0,.023-.02,0a2.311,2.311,0,0,0-.5-1.359c-.162-.25-.307-.508-.44-.747a10.441,10.441,0,0,0-.882-1.283,19.1,19.1,0,0,1-1.148-1.666c-.155-.044-.133-.081-.173-.211-.15-.093-.221-.261-.345-.383-.083-.081-.2-.132-.286-.209-.046-.044-.082-.105-.134-.154-.219-.2-.437-.383-.613-.575a7.405,7.405,0,0,1-1.015-1.742,1.317,1.317,0,0,0-.229-.479,3.3,3.3,0,0,0-.23-.42c-.08-.134-.131-.276-.21-.422s-.4-.747-.557-.767c-.072-.008-.105.084-.191.192-.046.059-.125.112-.153.154a4.068,4.068,0,0,0-.383,1.168c-.1.394-.229.771-.306,1.092.859.474,1.979.464,2.586,1.168a24.6,24.6,0,0,1,1.454,2.3,13.727,13.727,0,0,0,3.159,4.155m9.479-8.138c.025-.07.038.167-.019.077-.016.067.028.073.019.134.114.074.208.04.325.058.192.027.308.157.5.21.34.1.828-.08,1.15.019.114-.382-.331-.847-.518-.459,0-.064-.061.05-.115.095a.87.87,0,0,1-.67.173l.02-.038c-.122-.049-.146-.014-.231-.116a2.725,2.725,0,0,1-.191-.363c.074-.081-.078-.057.02-.115-.069.029-.012-.066-.058-.058-.019.055-.082-.005-.115,0-.024.093.011.078-.057.1.047.076-.053.287-.057.286m4.881,2.2c-.01.068.049.145-.019.115.013.236.006.354,0,.65.037,0,.038.028.057.04a3.18,3.18,0,0,0,.709-1.188c-.023,0-.045-.006-.038-.038.116-.011.056-.2.154-.229.077-.535.573-1.489-.039-1.782-.052.023-.073.1-.153.078,0,.055,0,.065-.039.037a.1.1,0,0,0,.019.059c-.18.1-.181.405-.248.649-.051.185-.14.384-.173.537a2.1,2.1,0,0,1-.116.536c0-.023,0-.055-.019-.057-.01.094.038.13-.017.172.032.008.049-.029.056,0-.057-.006-.018.117-.076.057v.058c0,.035.032-.01.037.019-.027.046-.028.047-.057.058.037.058-.048.3-.038.229m-5.744-1.915c.039-.03.111.081.115,0,0,.03.049.015.039.058.084.009.115,0,.114-.038.012.042.1.087.116.018-.1-.064-.287-.165-.384-.134.011,0,.023-.015,0-.018-.022.043-.055.084,0,.114M307.359,95.85c.107.155.27.363.325.442.676.942,1.289,1.873,2.012,2.737s1.511,1.631,2.3,2.489c.391.426.763.846,1.168,1.225s.855.742,1.3,1.091a16.232,16.232,0,0,1,2.47,2.3,20.926,20.926,0,0,0,1.781,1.875,12.669,12.669,0,0,0,1.494,1.265,1.858,1.858,0,0,0,.611.325c.172-.01.229-.216.287-.306.1-.159.261-.239.173-.364-.15-.086-.248-.189-.364-.268-.29-.2-.684-.5-.958-.728-.1-.081-.16-.131-.191-.114-.132-.2-.422-.355-.613-.613a1.467,1.467,0,0,1-.42-.384c-.1-.022-.145-.127-.193-.17s-.1-.088-.151-.136a10.814,10.814,0,0,0-.9-.842,1.728,1.728,0,0,1-.249-.248c-.207-.281-.571-.458-.8-.767-.039-.032-.024,0-.076,0-.028-.136-.258-.226-.364-.345-.055-.039-.116-.1-.192-.152a2.983,2.983,0,0,0-.268-.154,12.851,12.851,0,0,1-2.508-2.106c-.235-.266-.455-.617-.651-.785,0-.06-.043-.108-.076-.154-.475-.664-1-1.479-1.475-2.239a13.794,13.794,0,0,0-1.551-2.336c-.49-.684-1.289-.743-2.049-.9-.071.134.061.259.134.364m9.728,4.825a6.331,6.331,0,0,0,3.216,1.57,4.6,4.6,0,0,0,.976.058,4.907,4.907,0,0,0,2.336-.575c.036-.035.166-.11.231-.171-.041-.006.027-.052-.021-.076.043.027.049-.019.078-.02-.079-.118-.3.1-.345.039-.122.149-.34.128-.517.21-.039.018-.054.062-.1.077,0,0-.026-.043-.038-.039s-.049.048-.077.057-.16,0-.192.02,0,.05-.037.057c.061-.013-.057-.038-.058-.038-.2.042-.537.084-.785.115,0-.023.028-.031,0-.039a1.653,1.653,0,0,1-.345,0,5.16,5.16,0,0,1-1.36-.306,15.331,15.331,0,0,1-1.7-.9,3.242,3.242,0,0,0-1.3-.422c-.192.135.086.345.039.383m10.222,1.878c0,.009-.013.021-.019,0a1.013,1.013,0,0,0-.478-1.092.562.562,0,0,0-.554.249c0-.01.012-.023.018,0-.119.038-.136.218-.191.306,0,.008-.037-.024-.038-.019a3.969,3.969,0,0,1-.135.459.656.656,0,0,0-.133.364c-.069-.047-.015.023-.02.038-.015.054-.1.139-.115.191-.052.2-.211.441-.287.69a1.128,1.128,0,0,0-.191.287c-.01.022.022.05.018.058s-.034-.023-.037-.02c-.043.064-.063.138-.116.23a7.748,7.748,0,0,1-.555.976c-.313.659-.567,1.076-.938,1.744-.078-.012-.141.211-.229.305-.061.065-.165.146-.173.249-.3.293-.511.676-.842.94.011.06-.036.058,0,.095-.025,0-.026-.025-.057-.02-.289.42-.664.648-.958,1.13-.027-.009-.032-.023-.057,0-.062.21-.188.159-.172.4.3.466.517,1.116.8,1.53.413-.066.736-.074,1.015-.113a.765.765,0,0,0,.575-.4c.011-.025-.019.022.018,0s.057-.088.1-.132a5.957,5.957,0,0,0,.632-.864c0,.012-.016.023-.019,0,.111-.112.162-.331.248-.363a2.534,2.534,0,0,1,.384-.631c-.021-.123.166-.2.171-.364.057.039.045-.138.134-.135-.035-.028.042-.1.058-.094.346-.639.628-1.174.938-1.743.023-.041.128-.164.057-.152a1.97,1.97,0,0,0,.173-.289,5.2,5.2,0,0,0,.229-.613c.032-.076.134-.152.058-.152a6.956,6.956,0,0,0,.517-1.628c-.02.081.023-.134,0-.039,0,.008.105-.291.038-.286.064-.087.044-.153.059-.269.021,0,.029.028.038,0-.036-.047.012-.045-.038-.057.035-.057.073-.153.018-.153a2.219,2.219,0,0,0,.056-.612m-9.725,5.628a47.921,47.921,0,0,0-4.9-4.48c-.18-.148-.631-.555-.86-.747a2.882,2.882,0,0,0-1.934-.919c-.369.05-.313.351-.288.555.006.036.032-.009.038.019a5.4,5.4,0,0,0,.691,1.724c0-.011.014-.022.018,0a12.855,12.855,0,0,0,4.251,4.289c1.166.781,2.369,1.55,3.561,2.3.4.25.958.577,1.246.8a8.627,8.627,0,0,0,1.129-.019c-.039-.019-.042-.073-.039-.135a1.473,1.473,0,0,1-.23-.267c-.09-.111-.2-.248-.249-.305-.009-.012.026-.032.018-.04-.14-.181-.491-.593-.573-.689-.028-.032-.034-.093-.056-.115s-.051.01-.059,0c-.027-.033-.03-.1-.057-.134-.124-.155-.28-.268-.383-.421.011,0,.021.015,0,.019a13.627,13.627,0,0,0-1.321-1.436m-.517-4.556a4.832,4.832,0,0,0,.249.765c-.016,0-.038,0-.039.02.149.162.4.429.5.325-.019.035.046-.188.077-.058.024-.067-.051-.17.019-.114-.039-.143.056-.175-.019-.173.019-.039.1-.156.019-.077.021-.147.066-.083.038-.229.072-.043.135-.238.27-.326a2.1,2.1,0,0,1,.822-.153,17.706,17.706,0,0,0,2.681-.594,1.947,1.947,0,0,1,.766.058c.434.028,1.025-.416,1.359-.037a4.2,4.2,0,0,0,.364-.423c-.02-.072.057-.132-.077-.172a4.263,4.263,0,0,1-.728.153,17.571,17.571,0,0,1-1.819.268,1.067,1.067,0,0,0-.5,0c-.771-.051-1.416-.069-2.241-.191.017,0,.012.025,0,.019a9.427,9.427,0,0,0-1.053-.21c-.052-.014-.1-.065-.153-.078-.159-.036-.338-.029-.479-.076-.084-.027-.27-.077-.248-.1-.118.019-.19,0-.269.038-.007-.007-.057.108-.1.116a4.783,4.783,0,0,0,.556,1.245m3.829.095c-.006-.027-.042-.023-.057-.038-.512.135-1.1.233-1.686.325a5.646,5.646,0,0,0-.593.077.865.865,0,0,0-.381.268c-.023.025-.129.093-.117.153,0-.012.016-.021.019,0-.019,0-.022.016-.037.021-.032,0-.012-.056-.04-.058-.024.153.076.178-.018.209a2.579,2.579,0,0,0,.076.249c-.021-.012.1.076.058.135.059,0,.042.085.1.095.151.254.5.374.8.613a2.1,2.1,0,0,1,.44.5,3.637,3.637,0,0,0,1.8,1.493c.663.13,1.274-.542,1.513-.919.117-.184.149-.212.3-.479a6.237,6.237,0,0,0,.4-.574c.04.028.174-.158.1-.134.067-.06.179-.156.135-.192.041-.032.048-.052.076-.057-.014,0-.023-.015-.018-.039.038.006.158-.289.095-.268.086-.053.059-.155-.018-.209-.082.031-.182.077-.193.019a.514.514,0,0,1-.651-.173c-.1-.346.157-.625.325-.862,0,.011-.015.022-.018,0,.176-.156.155-.249.229-.344-.031-.037-.079-.068-.019-.1a.781.781,0,0,0-.5-.133c-.238-.106-.666.08-.938.133.01,0,.021-.016,0-.019-.3.147-.915.168-1.188.306m9.977,2.24c-.012.062-.042.036-.059.057,0,.209-.132.317-.1.555-.1-.058,0,.12-.1.134.048.057,0,.185-.036.155-.022.317-.133.39-.174.688,0-.012,0-.023.019-.018-.034.044-.043.1-.077.094.04.011-.028.058.04.02-.056.01-.014.173-.077.115a7.179,7.179,0,0,1-.231.843,1.78,1.78,0,0,0-.191.823c.087-.032.129-.019.135-.077.118.042.273-.146.344-.153-.012,0-.021.015,0,.019a1.993,1.993,0,0,0,.212-.784c.057.039.031-.017.036-.039.038-.132.083-.433.116-.574,0,.011,0,.022-.02.018.107-.254.036-.435.155-.727-.027-.006-.023-.042-.04-.058.11.06,0-.065,0-.056a1.4,1.4,0,0,0,.078-.211s-.044-.021-.038-.038.038.018.038.018a3.05,3.05,0,0,0,.037-.346,1.081,1.081,0,0,1,.078-.305c-.006-.036-.033.01-.039-.019.071-.082.035-.029.02-.115.064-.019.05-.171,0-.287-.018.061.029.058.037.1-.037,0-.024-.053-.076-.039.013.1-.057.145-.057.077,0,.1-.1.14-.038.134m-1.227.5c-.046.014-.069.091-.1.174a2.816,2.816,0,0,0-.1.344c-.013.112.026.224-.058.23a.672.672,0,0,1-.095.363c-.006.039.024.039.038.057-.086.091-.044.176-.058.23-.02.08-.1.226-.057.288-.063.016-.022.139-.075.114.088.055-.1.209,0,.154,0,.157-.178.358-.135.5a.015.015,0,0,1,.019-.018c-.056.008-.013.172-.076.114a3.935,3.935,0,0,1-.232.842c.1-.009-.043.053.019.058.028-.071,0,.057.041.038.064-.08.384-.106.306-.21.053.026.067-.086.075-.115,0,.007.014.03.02.019.158-.345.143-.648.307-.919-.015,0-.038,0-.039-.018.071-.027.072-.217.058-.173a8.449,8.449,0,0,0,.288-1.321c0,.061,0-.213.037-.134-.059-.15.066-.271-.019-.42.053-.011.076-.148.019-.059.057-.12,0-.2.057-.267-.076-.009.007-.067-.057-.1.022,0,.043.034.057,0a1.058,1.058,0,0,1-.076-.211c-.073.05-.072.02-.058.116-.067.037,0-.01-.038-.02-.016.2-.133.253-.077.344m-18.86.384c-.007.209.167.31.23.384-.006-.009.012.05.02.057a9.79,9.79,0,0,0,.976.8,8.247,8.247,0,0,0,1.379.786c1.467.788,2.859,1.937,4.193,2.756a4.315,4.315,0,0,0,.746.039c-.073-.14-.262-.285-.326-.269a6.251,6.251,0,0,0-1.014-.745c-.566-.376-1.2-.813-1.762-1.15-.654-.435-1.611-1.036-2.3-1.531.021,0,.047.032.02.037a4.113,4.113,0,0,0-2.144-1.187c.02,0,.015.026-.02.02m16.256,2.7c-.053,0-.045.072-.1.02-.025.044.05.072,0,.076a.051.051,0,0,0-.057-.038c-.021.06-.009.051.019.095-.06-.038-.074.035-.076.058.055-.031-.017.116.076.095.024-.029-.02-.108.057-.057.031-.115.019-.157.077-.134-.035,0-.011-.065-.038-.076.027-.019.113-.076.076-.1-.019.06-.031-.042-.057-.039.022.061-.005.052.019.1m-1.206.115c-.1-.055-.071.149-.152.153.021,0,.02.031.018.058-.078-.01.018.066-.058.02-.094.288-.152.35-.248.65,0-.026,0-.072-.02-.038.037.175-.132.155-.076.365-.094.006-.066.167-.039.19,0-.021-.027-.03,0-.038.047.026.014.038.039.057.04-.064.017-.016.038,0,0-.022.03-.019.058-.019.008-.116.17-.073.077-.153.057.065.019-.083.075-.019-.013-.08.046-.167.04-.211.029-.065.188-.375.114-.363.124-.087.047-.239.173-.384-.027,0-.022-.04-.039-.057.024,0,.027.025.058.02-.05-.049.062-.139-.019-.1.069-.046.047-.134.1-.153a.053.053,0,0,1-.038-.057c.059.032.068-.095.038-.039-.014.048-.057,0-.018-.02-.024,0-.055.005-.058-.018.011,0,.021-.016,0-.019-.022.107-.11.068-.058.172" transform="translate(-12.672 -13.01)"/><path class="cls-7" d="M322.026,70.712c.321-.075.532.213.708.42a3.586,3.586,0,0,0,.613.689c.192.126.415.2.613.307.383.213.7.46,1.111.727a1.155,1.155,0,0,0,1.072.288c.232-.266.036-.63-.173-.881-.3-.359-1.041-.68-1.034-1.265a.82.82,0,0,1,.153-.42c.219-.267.817-.326.881-.746.109-.712-.681-1.031-.69-1.685a.994.994,0,0,1,.384-.71,2.442,2.442,0,0,1,.957-.516c.518-.086.791.2,1.148.459.457.327.8.34.881.959.14-.378.409.06.517.229.216.338.305.652.517.975.1.153.254.246.346.384.112.172.137.346.229.478.469.674,1.467.681,2.03,1.168a.894.894,0,0,1,.344.8c-.364.043-.6-.193-.957-.153-.175.02-.316.13-.5.116a1.17,1.17,0,0,1-.709-.5c-.34-.5-.383-1.276-.786-1.781a3.5,3.5,0,0,1-.975-1.569c-.076.271,0,.445-.059.8-.089.047-.141-.089-.192-.135-.2-.182-.394-.367-.612-.574a1.514,1.514,0,0,0-.977-.554.715.715,0,0,0-.651,1.033c.143.327.613.407.883.613.481.368.745,1.251,1.186,1.647a.568.568,0,0,0,.938-.307c.078-.5-.3-.8-.21-1.3.47.349,1.283,1.243.727,2.087a29.311,29.311,0,0,1,1.533,5.916,6.278,6.278,0,0,1-.288,2.853c-.216.7-.5,1.358-.786,2.067-.125.311-.179.685-.5.747a2.066,2.066,0,0,1-1.666-.516c-.045.42-.67-.1-.958-.116-.443-.024-.687.456-1.072.249.039.044-.055.135-.056.173-.011.129.12.247.076.344a1.651,1.651,0,0,1-1.589-.421c-.119-.085-.237-.176-.345-.249-.136-.095-.282-.119-.4-.191s-.2-.214-.3-.307a5.678,5.678,0,0,0-1.035-.574c.165-.194.475-.374.594-.613.033-.064.03-.206.077-.21a6.789,6.789,0,0,0,.076-1.379c-.031-.437-.22-.842-.116-1.073a1.508,1.508,0,0,0,.154-.306,15.235,15.235,0,0,1,1.513-1.148,2.061,2.061,0,0,0,.67-1.226,4.666,4.666,0,0,0-.039-1.857,1.855,1.855,0,0,0-1.627-1.59c-.348-.027-.715.033-.88-.23a2.417,2.417,0,0,1-.115-.306c-.18-.393-.546-.728-.632-1.128" transform="translate(-12.672 -13.01)"/><path class="cls-7" d="M313.372,84.343c.009-.029.02,0,.019.02a6.4,6.4,0,0,0,.479-2.068c-.074-1.909-2.021-2.738-1.762-4.653a4.234,4.234,0,0,1,.65-1.608,10.934,10.934,0,0,0,1.685-2.68,2.376,2.376,0,0,1,.5-1.111,3.579,3.579,0,0,1,.882-.345c.641-.239,1.155-.568,1.761-.824a2.615,2.615,0,0,1,1.206-.286,2.248,2.248,0,0,1,1.13.517,8.134,8.134,0,0,0,3.926,1.55c.089.006.132-.03.248-.019,1.231.137,1.3,2.239.937,3.159-.374.962-1.774,1.36-2.2,2.336-.026.058,0,.137-.076.172a.384.384,0,0,1-.04.25,4.5,4.5,0,0,0,.173,1.224c.031.16.007.376.038.48-.167.52-.493,1.146-1.091,1.245a2.246,2.246,0,0,1-.421-.04c-.448-.008-.864.313-1.322.23.014-.2.118-.3.021-.479-.481,0-.815.421-1,.537-.134-.07-.168-.156-.173-.325-.271-.11-.348.361-.554.325-.162-.029-.121-.277-.173-.459-.3.048-.289.411-.594.459-.089-.039-.082-.173-.154-.229a5.31,5.31,0,0,0-3.044,2.928c.17.126.462-.087.632.134.044.058.009.15.058.23a.571.571,0,0,0,.421.21c.556.061,1.008-.312,1.4-.344.017.056.021.118.038.173.056.114.159.1.249.171.184.149.206.391.364.595a3.158,3.158,0,0,0,1.838.613,1.675,1.675,0,0,0,1.321-.632c.025-.111-.038-.151.019-.268-.825.25-1.992.774-2.718.133-.317-.28-.5-.828-.192-1.091.075-.026.316-.114.42,0-.035.005.032.146.058.248s.091.252.059.231c.021.056.107.121.075.171.046.031.1.053.115.116a1.4,1.4,0,0,0,1.167,0,1.5,1.5,0,0,0,.691-1.015.421.421,0,0,1,.268,0c.012.007.02.039.02.039.157.064.18.16.21.344.047.3.27.626.21.824.073.131.194.121.345.191.053.166-.105.352-.249.478a2.836,2.836,0,0,1-1.052.517A5.7,5.7,0,0,1,318.9,87c-.733.027-1.423-.508-2.088-.153.01.049.034.075-.036.077a2.019,2.019,0,0,0,1.952,1.092,4.04,4.04,0,0,0,1.224-.268,3.663,3.663,0,0,0,2.106-2.03c.021-.026.034.008.059-.038a5.6,5.6,0,0,1,.153-.556c.043-.055.011-.033.1-.1a4.851,4.851,0,0,1,.267,1.149c.02.186-.01.244,0,.441.048.008.061.209,0,.268-.027.058.017.094.039.152a7.188,7.188,0,0,0,.077,1.609c.034.213.1.7.382.537a6.963,6.963,0,0,0,.287-.939c.012-.046-.019-.188.077-.172-.057-.078.053-.153,0-.172.072-.037.032-.188.058-.288s.037-.017.037-.114c0-.275.039-.921.04-1.4,0,0-.064-.09.018-.038-.037-.035-.062-.271,0-.192-.1-.175.034-.465.038-.689,0-.01-.039-.069-.038-.077a3.57,3.57,0,0,1,.211-.861c.033-.079.1-.233.173-.249.113-.027.212.165.344.229s.19.024.287.1c-.019.433.469.419.728.594.091.061.063.212.077.325a.42.42,0,0,1,.037.154,17.221,17.221,0,0,1,.078,2.374c-.02.571-.06,1.254-.135,1.934s-.12,1.321-.23,1.895c-.054.287-.212.967-.593,1a4.54,4.54,0,0,1-1.608-.325,6.132,6.132,0,0,0-2.2-.4c-.089-.365.212-.8.287-1.148-.01-.025-.073.013-.056-.077.083.066-.03-.114.056-.058a.962.962,0,0,1,.019-.229c.01-.037.069-.255.1-.174a1.464,1.464,0,0,1,.383-.516c.188-.045.287-.077.381-.095.311.161.319.481.71.383-.27-.366-.55-.8-1.091-.843a1.814,1.814,0,0,0-1.111.479,10.875,10.875,0,0,0-.689.937,4.152,4.152,0,0,0-.729.9c-.27.55-.3,1.546-1.186,1.455s-1.167-1.3-1.685-1.819a3.478,3.478,0,0,0-1.129-.537,3.927,3.927,0,0,1-1.972-1.339,2.36,2.36,0,0,1-.326-1.015,6.414,6.414,0,0,1,.038-2.278c.125-.528.465-1.025.556-1.532Z" transform="translate(-12.672 -13.01)"/><path class="cls-7" d="M310.709,81.317a4.571,4.571,0,0,0-2.028.461.357.357,0,0,1,.172.095,2.157,2.157,0,0,0,.689-.037c.368-.114.686-.477,1.015-.25a5.612,5.612,0,0,1-.8,1.284,3.263,3.263,0,0,0-.556,1.569c-.007.088.01.18,0,.268a2.212,2.212,0,0,0,0,.459c-.006,0,.056.189-.019.133a.5.5,0,0,1,.057.365c.113.662.567,1.718.268,2.356a3.751,3.751,0,0,1-.841-.824c-.311-.395-.784-1.064-1.322-.574a3.3,3.3,0,0,1-.727-3.963c.237-.37.471-.688.937-.421a2.915,2.915,0,0,0-.363,1.32,10.976,10.976,0,0,1-.057,2.183c.328.238.376-.27.4-.459a7.574,7.574,0,0,0,.018-.823,5.055,5.055,0,0,1,.02-.842c.154-.57.841-.44,1.072.095.05.117.033.248.1.344a1.768,1.768,0,0,1-.306.919c-.159.27-.422.5-.479.747-.05.223.018.418.173.44.31.046.6-.546.67-.727a3.415,3.415,0,0,0,.191-1.283,1.9,1.9,0,0,0,0-.842c-.084-.068-.1-.193-.211-.307-.325-.345-1.226-.72-.536-1.034.023-.09.046-.09.115-.154a4.54,4.54,0,0,1-.843.039c-.194-.244-.076-.706-.038-1.207a3,3,0,0,1,0-.554c.04-.131.2-.154.23-.308.06-.269-.006-.519.057-.726.418-1.359,2.1-1.382,3.255-2.24.281-1.087-1.5-.488-1.953-.44-.057-.165.16-.231.172-.345s-.161-.235-.306-.249a2.275,2.275,0,0,0-.631.076c-.27.077-.362.314-.594.268.114-.306.414-.467.728-.651a1.941,1.941,0,0,1,1.474-.4,7.682,7.682,0,0,1,1.359.5c.218.083.725.142.307-.153a3.3,3.3,0,0,0-2.049-.593,3.043,3.043,0,0,0-2.011.975c-.2.2-.639.72-1.033.4a2.611,2.611,0,0,1,1.417-1.839,2.128,2.128,0,0,1,.421-.267c.237-.066.482.086.785.115s.53-.076.766,0c.182.058.4.155.612.229a2.463,2.463,0,0,1,1.379,1.092c.22-.054.123-.305.077-.4-.171-.359-.706-.578-.977-.824a7.966,7.966,0,0,0-2.183-.479,2.193,2.193,0,0,0-1.322.518c-.183-.663.474-1.178.786-1.59.121.022.151.113.249.134a2.206,2.206,0,0,0,.613,0,4.9,4.9,0,0,0,1.57-.383c.268-.114.516-.31.823-.171-.128.464-.886.3-1.225.554a.885.885,0,0,0,0,.308c1.069.34,2.462.154,3.58.535-.075,1.557-1.856,2.142-1.972,3.734a3.478,3.478,0,0,0,.039.938c0,.012.035,0,.037.039a5.5,5.5,0,0,0,.862,1.8c.193.308.393.7.556,1a2.16,2.16,0,0,1,.382,1.111,3.947,3.947,0,0,1-.287,1.494,3.608,3.608,0,0,1-.727,1.033,4.106,4.106,0,0,1-.976.8,2.6,2.6,0,0,1-1.322.44,1.038,1.038,0,0,1-1.035-.842,3.312,3.312,0,0,1,.328-1.665,4.688,4.688,0,0,1,.363-.747,3.013,3.013,0,0,0,.611-1.553" transform="translate(-12.672 -13.01)"/><path class="cls-7" d="M307.4,76.474c-.215.053-.3.231-.479.326a.156.156,0,0,1-.1-.212c.061-.142.575-.3.575-.114" transform="translate(-12.672 -13.01)"/><path class="cls-7" d="M307.57,78.408c-.088-.1.033-.286.114-.421a3.274,3.274,0,0,1,.442-.556,4.791,4.791,0,0,1,1.742-1.015c.119-.032.841-.129.861.078.009.1-.63.45-.747.516a25.571,25.571,0,0,0-2.412,1.4" transform="translate(-12.672 -13.01)"/><path class="cls-7" d="M307.7,77.317c.037,0,.013.062.057.057-.037.149-.178.192-.268.305-.221.281-.243.708-.479.978-.6-.319.134-1.322.69-1.34" transform="translate(-12.672 -13.01)"/><path class="cls-7" d="M315.975,84.019c.039.012-.018.063.02.076-.232.158-.363.517-.651.554-.141.122-.356-.094-.327-.286.059-.032.053-.149.117-.23.181-.236.716-.338.841-.114" transform="translate(-12.672 -13.01)"/><path class="cls-7" d="M319.46,84.478c.007-.041.068.02.057.057-.062-.015-.029.038,0,.038-.028.01-.076.081-.113.134-.035-.028-.045-.017-.04.039-.245,0,.058-.328.1-.268" transform="translate(-12.672 -13.01)"/><path class="cls-7" d="M322.982,84.746c.12-.043.222.309.154.344,0,.022.019.01.019,0,.011.37.179.687.154,1.054.062-.009.025.208.018.287a3.213,3.213,0,0,0,.059.344,2.965,2.965,0,0,1-.1.631c.045-.014.027.143.02.211a2.411,2.411,0,0,1-.192.728c-.056,0-.07-.026-.1,0-.035,0,.015-.1-.02-.058a21.791,21.791,0,0,1-.268-2.968c0-.021.039-.015.057-.02-.022-.023-.007-.028,0-.056-.017.01-.033.017-.037.039-.012-.131.045-.519.228-.536" transform="translate(-12.672 -13.01)"/><path class="cls-7" d="M327.961,84.918c.059-.048-.132.2-.038.077a.1.1,0,0,1-.018-.077c.024.022.03.007.056,0" transform="translate(-12.672 -13.01)"/><path class="cls-7" d="M328.287,87.138c-.21.294-.9.187-1.283.134-.016.18-.223.237-.154.441.158.19.351.5.671.594.1-.032.157.05.248.076a2.938,2.938,0,0,0,2.012-.19,5.477,5.477,0,0,0,.536-.346c.1.011.247-.17.325-.115a.9.9,0,0,1-.23.478c-.031.035-.094.077-.134.117-.512.485-1.323.784-1.685,1.435-.015.093-.036.23-.076.192.033.057-.008.1.018.134.294.174.871-.115,1.055.076.064.038.053.15.114.192a1.725,1.725,0,0,1-.307,1.359c-.206.19-.556.241-.8.42-.151.111-.216.247-.364.364a3.939,3.939,0,0,0-.364,1.054c-.035.145-.276.471-.516.364a1.254,1.254,0,0,1,0-.441c-.015-.035-.025-.077-.059-.095a4,4,0,0,0-.822-1.551,5.95,5.95,0,0,1-.593-3.6c.045-.443.114-.841.153-1.148.031-.028.023-.35.076-.307a13.07,13.07,0,0,1,.23-1.4.257.257,0,0,1,.345-.171c.058.129.228.365.21.479.125.112.11.239.269.344s.363.058.555.1c.384.078-.352.47-.211.8.123.292.446.076.785.21" transform="translate(-12.672 -13.01)"/><path class="cls-7" d="M307.646,86.775c.393-.061.757.385.958.728a1.979,1.979,0,0,0,.23.421c.218.2.618.145.824.383.169.4-.073.928-.518.842a1.981,1.981,0,0,1-1.282-1.32,2.273,2.273,0,0,1-.212-1.054" transform="translate(-12.672 -13.01)"/><path class="cls-7" d="M330.163,86.813c.023.022,0,.117-.038.077.052.063-.054.055,0,.1a4.338,4.338,0,0,1-.344.382,2.133,2.133,0,0,1-1.552.421c-.122-.011-.282,0-.364-.1.3-.077.712-.3,1.073-.4a4.159,4.159,0,0,1,1.187-.5c.035.024-.012.094.038.019" transform="translate(-12.672 -13.01)"/><path class="cls-7" d="M317.986,93.3a1.362,1.362,0,0,1-.018.268,1.214,1.214,0,0,1-1.284.633c-.694-.091-1.074-.739-1.474-1.092-.03.137.042.335-.059.44.095.007-.081.166.039.172-.056.052-.022.194-.056.267.084-.12-.076.244.017.192,0,.088-.036.022-.057.1.092.117-.117.91-.056,1.072-.077.012.024.3-.057.344.049.709.576,1.092.86,1.628.1.022.214.18.288.287a12.706,12.706,0,0,0,1.148.862c.022.045,0,.051.039.1.034-.017.031-.086.076-.04-.036,0-.026.035-.057.077A1.73,1.73,0,0,1,318,99.852c-.045.016-.036.025-.057.095-2.666-.748-4.878-2.329-5.647-4.67-.007-.032-.035.016-.039-.02a7.846,7.846,0,0,0-.23-.822c-.006-.031.027-.065.02-.1a13.161,13.161,0,0,1-.364-2.834c0-.195-.024-.4-.019-.595,0-.063.019-.056.019-.056a1.512,1.512,0,0,1-.059-.423,2.236,2.236,0,0,1,.441-1.78,2.076,2.076,0,0,1,.881.881c.051,0,.172.2.25.286.854.986,2.5.959,3.292,2.05a4.907,4.907,0,0,0,.423.786c.016.023,0,.018.018.037.242.318.653.408,1.053.613" transform="translate(-12.672 -13.01)"/><path class="cls-7" d="M317.832,95.89c.143.131.465.051.691-.059s.333-.31.553-.382a1.847,1.847,0,0,1,.441-.039,9.989,9.989,0,0,1,3.141.4,2.025,2.025,0,0,1,.669.171c.045.023.156.035.116.116-.063-.059.008-.017-.039.018a2.559,2.559,0,0,1-1.053.174,10,10,0,0,1-1.626-.231c-.013.185-.2.383.037.48a3.9,3.9,0,0,0,1.014.171,9.566,9.566,0,0,0,1.284-.038.964.964,0,0,1,.211,0c.011,0,.021.049.076.038a3.265,3.265,0,0,1-.842.268c-.769.148-1.647.24-2.011.785a.219.219,0,0,0,.268.095,5.57,5.57,0,0,1,1.876-.286,1.714,1.714,0,0,1,1.093.4c.116.091.237.31.4.343.069.077.089.2.153.287a12.993,12.993,0,0,0-.307-1.282c-.044.038-.021,0-.056-.019.008-.028.016,0,.037,0-.057-.152.018-.225-.02-.4a1.8,1.8,0,0,1,1.015-.975c.212.049.407.309.613.478.52.111.736-.363.824-.747.057-.021,0-.076.057-.038a1.7,1.7,0,0,1,.057-.344c.125-.367.323-.988.708-1.034-.012,0,.1.006.059,0,.24.046.312.3.592.364.1-.019.1-.207.154-.289,0,0,.035.026.038.021.059-.141.059-.26.115-.4a2.991,2.991,0,0,1,.306-.479.6.6,0,0,1,.211-.21c.113-.047.238-.031.287-.192.183-.068.671.065.574.421-.052.2-.28.374-.345.536-.017,0-.014-.023-.018-.038a3.9,3.9,0,0,1-.383.517c-.491.866-.286,1.741-.517,2.6a2.091,2.091,0,0,1-.632,1c.005.023.019.011.019,0a8.055,8.055,0,0,1-2.182,1.9c-.267.147-.847.527-1.016.228-.023-.262-.033-.54-.057-.8-.088.292-.121.717-.286.823-.032.091.043.015-.02.115-.02-.085-.132.159-.134.173a3.088,3.088,0,0,1-2.643,1.015,4.908,4.908,0,0,1-2.68-.995c.024-.147-.14-.445-.116-.538-.592-1.707-2.633-2.467-3.158-4.134a1.068,1.068,0,0,1-.115-.557c-.058.022-.045-.332,0-.3-.087-.091.072-.092-.019-.211.054.043.11-.25.077-.23.057-.161.157-.24.172-.4.051-.07.277-.075.229.039a3.884,3.884,0,0,0,.843.286,2.037,2.037,0,0,0,1.895-1.034,1.613,1.613,0,0,1,.231-.421c.022-.244.18-.329.21-.633.029.05.076-.068.058-.093.085-.015.018-.111.113-.135a.617.617,0,0,1,.193-.364c-.051-.069.079-.138.095-.173a5.162,5.162,0,0,1,.689-1.034c.056-.062.111-.126.172-.191.029-.029.108-.05.136-.077.051-.05.116-.139.191-.21s.16-.127.21-.172.107-.158.23-.136c.07.056.008.165.077.231-.009.029-.016,0-.039,0,.031.142-.065.269-.211.555-.1.2-.189.487-.248.479a1.186,1.186,0,0,0,.019.765,1.484,1.484,0,0,0,.287.422c.411.372,1.273.353,1.666.67.159.13.275.185.325.287.022.151.1.674-.172.881a3.893,3.893,0,0,1-.862.21,7.5,7.5,0,0,1-2.24.25c-.221-.017-.562-.168-.726-.115-.549.178-.744.964-1.036,1.437" transform="translate(-12.672 -13.01)"/><path class="cls-7" d="M311.112,98.474a24.6,24.6,0,0,0-1.454-2.3c-.607-.7-1.727-.694-2.586-1.168.077-.321.2-.7.306-1.092a4.068,4.068,0,0,1,.383-1.168c.028-.042.107-.095.153-.154.086-.108.119-.2.191-.192.16.02.484.635.557.767s.13.288.21.422a3.3,3.3,0,0,1,.23.42,1.317,1.317,0,0,1,.229.479,7.405,7.405,0,0,0,1.015,1.742c.176.192.394.373.613.575.052.049.088.11.134.154.083.077.2.128.286.209.124.122.195.29.345.383.04.13.018.167.173.211a19.1,19.1,0,0,0,1.148,1.666,10.441,10.441,0,0,1,.882,1.283c.133.239.278.5.44.747a2.311,2.311,0,0,1,.5,1.359c.023.023.05.008.02,0,.07-.039-.032.162,0,.134-.093.077-.443-.192-.613-.325a13.727,13.727,0,0,1-3.159-4.155" transform="translate(-12.672 -13.01)"/><path class="cls-7" d="M323.807,94.205c.068-.019.033,0,.057-.1.033-.005.1.055.115,0,.046-.008-.011.087.058.058-.1.058.054.034-.02.115a2.725,2.725,0,0,0,.191.363c.085.1.109.067.231.116l-.02.038a.87.87,0,0,0,.67-.173c.054-.045.11-.159.115-.095.187-.388.632.077.518.459-.322-.1-.81.077-1.15-.019-.189-.053-.305-.183-.5-.21-.117-.018-.211.016-.325-.058.009-.061-.035-.067-.019-.134.057.09.044-.147.019-.077,0,0,.1-.21.057-.286" transform="translate(-12.672 -13.01)"/><path class="cls-7" d="M328.669,96.464c.029-.011.03-.012.057-.058,0-.029-.032.016-.037-.019v-.058c.058.06.019-.063.076-.057-.007-.029-.024.008-.056,0,.055-.042.007-.078.017-.172.024,0,.017.034.019.057a2.1,2.1,0,0,0,.116-.536c.033-.153.122-.352.173-.537.067-.244.068-.546.248-.649a.1.1,0,0,1-.019-.059c.034.028.044.018.039-.037.08.022.1-.055.153-.078.612.293.116,1.247.039,1.782-.1.029-.038.218-.154.229-.007.032.015.035.038.038a3.18,3.18,0,0,1-.709,1.188c-.019-.012-.02-.045-.057-.04.006-.3.013-.414,0-.65.068.03.009-.047.019-.115-.01.068.075-.171.038-.229" transform="translate(-12.672 -13.01)"/><path class="cls-7" d="M322.887,94.664c.023,0,.011.018,0,.018.1-.031.287.07.384.134-.012.069-.1.024-.116-.018,0,.033-.03.047-.114.038.01-.043-.036-.028-.039-.058,0,.081-.076-.03-.115,0-.055-.03-.022-.071,0-.114" transform="translate(-12.672 -13.01)"/><path class="cls-7" d="M307.225,95.486c.76.158,1.559.217,2.049.9a13.794,13.794,0,0,1,1.551,2.336c.48.76,1,1.575,1.475,2.239.033.046.081.094.076.154.2.168.416.519.651.785a12.851,12.851,0,0,0,2.508,2.106,2.983,2.983,0,0,1,.268.154c.076.054.137.113.192.152.106.119.336.209.364.345.052,0,.037-.032.076,0,.233.309.6.486.8.767a1.728,1.728,0,0,0,.249.248,10.814,10.814,0,0,1,.9.842c.048.048.1.087.151.136s.093.148.193.17a1.467,1.467,0,0,0,.42.384c.191.258.481.412.613.613.031-.017.095.033.191.114.274.225.668.529.958.728.116.079.214.182.364.268.088.125-.069.2-.173.364-.058.09-.115.3-.287.306a1.858,1.858,0,0,1-.611-.325,12.669,12.669,0,0,1-1.494-1.265,20.926,20.926,0,0,1-1.781-1.875,16.232,16.232,0,0,0-2.47-2.3c-.447-.349-.889-.7-1.3-1.091s-.777-.8-1.168-1.225c-.786-.858-1.587-1.638-2.3-2.489s-1.336-1.8-2.012-2.737c-.055-.079-.218-.287-.325-.442-.073-.1-.2-.23-.134-.364" transform="translate(-12.672 -13.01)"/><path class="cls-7" d="M317.048,100.292a3.242,3.242,0,0,1,1.3.422,15.331,15.331,0,0,0,1.7.9,5.16,5.16,0,0,0,1.36.306,1.653,1.653,0,0,0,.345,0c.028.008,0,.016,0,.039.248-.031.587-.073.785-.115,0,0,.119.025.058.038.037-.007.016-.045.037-.057s.151-.006.192-.02.055-.052.077-.057.04.038.038.039c.042-.015.057-.059.1-.077.177-.082.395-.061.517-.21.048.062.266-.157.345-.039-.029,0-.035.047-.078.02.048.024-.02.07.021.076-.065.061-.195.136-.231.171a4.907,4.907,0,0,1-2.336.575,4.6,4.6,0,0,1-.976-.058,6.331,6.331,0,0,1-3.216-1.57c.047-.038-.231-.248-.039-.383" transform="translate(-12.672 -13.01)"/><path class="cls-7" d="M327.253,103.165c.055,0,.017.1-.018.153.05.012,0,.01.038.057-.009.028-.017,0-.038,0-.015.116,0,.182-.059.269.067-.005-.04.294-.038.286.023-.1-.02.12,0,.039a6.956,6.956,0,0,1-.517,1.628c.076,0-.026.076-.058.152a5.2,5.2,0,0,1-.229.613,1.97,1.97,0,0,1-.173.289c.071-.012-.034.111-.057.152-.31.569-.592,1.1-.938,1.743-.016-.01-.093.066-.058.094-.089,0-.077.174-.134.135,0,.161-.192.241-.171.364a2.534,2.534,0,0,0-.384.631c-.086.032-.137.251-.248.363,0,.023.019.012.019,0a5.957,5.957,0,0,1-.632.864c-.04.044-.055.11-.1.132s-.007-.025-.018,0a.765.765,0,0,1-.575.4c-.279.039-.6.047-1.015.113-.286-.414-.5-1.064-.8-1.53-.016-.244.11-.193.172-.4.025-.023.03-.009.057,0,.294-.482.669-.71.958-1.13.031,0,.032.018.057.02-.036-.037.011-.035,0-.095.331-.264.54-.647.842-.94.008-.1.112-.184.173-.249.088-.094.151-.317.229-.305.371-.668.625-1.085.938-1.744a7.748,7.748,0,0,0,.555-.976c.053-.092.073-.166.116-.23,0,0,.033.029.037.02s-.028-.036-.018-.058a1.128,1.128,0,0,1,.191-.287c.076-.249.235-.493.287-.69.015-.052.1-.137.115-.191,0-.015-.049-.085.02-.038a.656.656,0,0,1,.133-.364,3.969,3.969,0,0,0,.135-.459s.033.027.038.019c.055-.088.072-.268.191-.306-.006-.023-.016-.01-.018,0a.562.562,0,0,1,.554-.249,1.013,1.013,0,0,1,.478,1.092c.006.021.019.009.019,0a2.219,2.219,0,0,1-.056.612" transform="translate(-12.672 -13.01)"/><path class="cls-7" d="M318.9,109.617c.021,0,.011-.019,0-.019.1.153.259.266.383.421.027.035.03.1.057.134.008.01.048-.008.059,0s.028.083.056.115c.082.1.433.508.573.689.008.008-.027.028-.018.04.053.057.159.194.249.305a1.473,1.473,0,0,0,.23.267c0,.062,0,.116.039.135a8.627,8.627,0,0,1-1.129.019c-.288-.227-.845-.554-1.246-.8-1.192-.747-2.4-1.516-3.561-2.3a12.855,12.855,0,0,1-4.251-4.289c0-.022-.018-.011-.018,0a5.4,5.4,0,0,1-.691-1.724c-.006-.028-.032.017-.038-.019-.025-.2-.081-.505.288-.555a2.882,2.882,0,0,1,1.934.919c.229.192.68.6.86.747a47.921,47.921,0,0,1,4.9,4.48,13.627,13.627,0,0,1,1.321,1.436" transform="translate(-12.672 -13.01)"/><path class="cls-7" d="M316.511,102.38c.039-.008.089-.123.1-.116.079-.042.151-.019.269-.038-.022.019.164.069.248.1.141.047.32.04.479.076.053.013.1.064.153.078a9.427,9.427,0,0,1,1.053.21c.012.006.017-.017,0-.019.825.122,1.47.14,2.241.191a1.067,1.067,0,0,1,.5,0,17.571,17.571,0,0,0,1.819-.268,4.263,4.263,0,0,0,.728-.153c.134.04.057.1.077.172a4.2,4.2,0,0,1-.364.423c-.334-.379-.925.065-1.359.037a1.947,1.947,0,0,0-.766-.058,17.706,17.706,0,0,1-2.681.594,2.1,2.1,0,0,0-.822.153c-.135.088-.2.283-.27.326.028.146-.017.082-.038.229.076-.079,0,.038-.019.077.075,0-.02.03.019.173-.07-.056,0,.047-.019.114-.031-.13-.1.093-.077.058-.1.1-.349-.163-.5-.325,0-.02.023-.015.039-.02a4.832,4.832,0,0,1-.249-.765,4.783,4.783,0,0,1-.556-1.245" transform="translate(-12.672 -13.01)"/><path class="cls-7" d="M322.084,103.414c.021,0,.01.019,0,.019.272-.053.7-.239.938-.133a.781.781,0,0,1,.5.133c-.06.028-.012.059.019.1-.074.095-.053.188-.229.344,0,.022.018.011.018,0-.168.237-.428.516-.325.862a.514.514,0,0,0,.651.173c.011.058.111.012.193-.019.077.054.1.156.018.209.063-.021-.057.274-.095.268,0,.024,0,.035.018.039-.028,0-.035.025-.076.057.044.036-.068.132-.135.192.079-.024-.055.162-.1.134a6.237,6.237,0,0,1-.4.574c-.156.267-.188.3-.3.479-.239.377-.85,1.049-1.513.919a3.637,3.637,0,0,1-1.8-1.493,2.1,2.1,0,0,0-.44-.5c-.305-.239-.653-.359-.8-.613-.054-.01-.037-.09-.1-.095.038-.059-.079-.147-.058-.135a2.579,2.579,0,0,1-.076-.249c.094-.031-.006-.056.018-.209.028,0,.008.055.04.058.015,0,.018-.021.037-.021,0-.021-.019-.012-.019,0-.012-.06.094-.128.117-.153a.865.865,0,0,1,.381-.268,5.646,5.646,0,0,1,.593-.077c.589-.092,1.174-.19,1.686-.325.015.015.051.011.057.038.273-.138.884-.159,1.188-.306" transform="translate(-12.672 -13.01)"/><path class="cls-7" d="M330.911,105.826c0,.068.07.022.057-.077.052-.014.039.039.076.039-.008-.038-.055-.035-.037-.1.05.116.064.268,0,.287.015.086.051.033-.02.115.006.029.033-.017.039.019a1.081,1.081,0,0,0-.078.305,3.05,3.05,0,0,1-.037.346s-.038-.022-.038-.018.038.035.038.038a1.4,1.4,0,0,1-.078.211c0-.009.11.116,0,.056.017.016.013.052.04.058-.119.292-.048.473-.155.727.016,0,.018-.007.02-.018-.033.141-.078.442-.116.574,0,.022.021.078-.036.039a1.993,1.993,0,0,1-.212.784c-.021,0-.012-.019,0-.019-.071.007-.226.2-.344.153-.006.058-.048.045-.135.077a1.78,1.78,0,0,1,.191-.823,7.179,7.179,0,0,0,.231-.843c.063.058.021-.105.077-.115-.068.038,0-.009-.04-.02.034,0,.043-.05.077-.094-.016-.005-.017.006-.019.018.041-.3.152-.371.174-.688.032.03.084-.1.036-.155.1-.014,0-.192.1-.134-.036-.238.094-.346.1-.555.017-.021.047.005.059-.057-.063.006.033-.034.038-.134" transform="translate(-12.672 -13.01)"/><path class="cls-7" d="M329.723,106.113c.039.01-.029.057.038.02-.014-.1-.015-.066.058-.116a1.058,1.058,0,0,0,.076.211c-.014.034-.035,0-.057,0,.064.03-.019.088.057.1-.061.065,0,.147-.057.267.057-.089.034.048-.019.059.085.149-.04.27.019.42-.036-.079-.041.2-.037.134a8.449,8.449,0,0,1-.288,1.321c.014-.044.013.146-.058.173,0,.017.024.015.039.018-.164.271-.149.574-.307.919-.006.011-.021-.012-.02-.019-.008.029-.022.141-.075.115.078.1-.242.13-.306.21-.037.019-.013-.109-.041-.038-.062,0,.084-.067-.019-.058a3.935,3.935,0,0,0,.232-.842c.063.058.02-.106.076-.114a.015.015,0,0,0-.019.018c-.043-.139.13-.34.135-.5-.1.055.088-.1,0-.154.053.025.012-.1.075-.114-.041-.062.037-.208.057-.288.014-.054-.028-.139.058-.23-.014-.018-.044-.018-.038-.057a.672.672,0,0,0,.095-.363c.084-.006.045-.118.058-.23a2.816,2.816,0,0,1,.1-.344c.027-.083.05-.16.1-.174-.056-.091.061-.148.077-.344" transform="translate(-12.672 -13.01)"/><path class="cls-7" d="M310.806,106.821a4.113,4.113,0,0,1,2.144,1.187c.027,0,0-.033-.02-.037.687.495,1.644,1.1,2.3,1.531.564.337,1.2.774,1.762,1.15A6.251,6.251,0,0,1,318,111.4c.064-.016.253.129.326.269a4.315,4.315,0,0,1-.746-.039c-1.334-.819-2.726-1.968-4.193-2.756a8.247,8.247,0,0,1-1.379-.786,9.79,9.79,0,0,1-.976-.8c-.008-.007-.026-.066-.02-.057-.063-.074-.237-.175-.23-.384.035.006.04-.018.02-.02" transform="translate(-12.672 -13.01)"/><path class="cls-7" d="M327.023,109.444c.026,0,.038.1.057.039.037.02-.049.077-.076.1.027.011,0,.074.038.076-.058-.023-.046.019-.077.134-.077-.051-.033.028-.057.057-.093.021-.021-.126-.076-.095,0-.023.016-.1.076-.058-.028-.044-.04-.035-.019-.095a.051.051,0,0,1,.057.038c.05,0-.025-.032,0-.076.051.052.043-.023.1-.02-.024-.044,0-.035-.019-.1" transform="translate(-12.672 -13.01)"/><path class="cls-7" d="M325.894,109.483c.021,0,.011.019,0,.019,0,.023.034.018.058.018-.039.024,0,.068.018.02.03-.056.021.071-.038.039a.053.053,0,0,0,.038.057c-.048.019-.026.107-.1.153.081-.042-.031.048.019.1-.031.005-.034-.019-.058-.02.017.017.012.053.039.057-.126.145-.049.3-.173.384.074-.012-.085.3-.114.363.006.044-.053.131-.04.211-.056-.064-.018.084-.075.019.093.08-.069.037-.077.153-.028,0-.054,0-.058.019-.021-.016,0-.064-.038,0-.025-.019.008-.031-.039-.057-.027.008,0,.017,0,.038-.027-.023-.055-.184.039-.19-.056-.21.113-.19.076-.365.016-.034.021.012.02.038.1-.3.154-.362.248-.65.076.046-.02-.03.058-.02,0-.027,0-.054-.018-.058.081,0,.053-.208.152-.153-.052-.1.036-.065.058-.172" transform="translate(-12.672 -13.01)"/></g></g></g></g></svg>